<svg width="20" height="20" viewBox="0 0 20 20" fill="none" xmlns="http://www.w3.org/2000/svg">
<path d="M5 6.59175V13.3334C5 14.6595 5.52678 15.9313 6.46447 16.8689C7.40215 17.8066 8.67392 18.3334 10 18.3334C11.3261 18.3334 12.5979 17.8066 13.5355 16.8689C14.4732 15.9313 15 14.6595 15 13.3334V5.00008C15 4.11603 14.6488 3.26818 14.0237 2.64306C13.3986 2.01794 12.5507 1.66675 11.6667 1.66675C10.7826 1.66675 9.93477 2.01794 9.30964 2.64306C8.68452 3.26818 8.33333 4.11603 8.33333 5.00008V12.6517C8.33333 12.8706 8.37644 13.0873 8.4602 13.2896C8.54396 13.4918 8.66672 13.6755 8.82149 13.8303C8.97625 13.985 9.15999 14.1078 9.36219 14.1915C9.5644 14.2753 9.78113 14.3184 10 14.3184V14.3184C10.442 14.3184 10.866 14.1428 11.1785 13.8303C11.4911 13.5177 11.6667 13.0938 11.6667 12.6517V6.66675" stroke="#BDBDBD" stroke-width="2" stroke-linecap="round" stroke-linejoin="round"/>
</svg>
