<svg width="20" height="20" viewBox="0 0 20 20" fill="none" xmlns="http://www.w3.org/2000/svg">
<path d="M2.1875 17.1875C2.1875 17.5332 2.4668 17.8125 2.8125 17.8125H17.1875C17.5332 17.8125 17.8125 17.5332 17.8125 17.1875V8.98438H2.1875V17.1875ZM17.1875 3.59375H13.9062V2.34375C13.9062 2.25781 13.8359 2.1875 13.75 2.1875H12.6562C12.5703 2.1875 12.5 2.25781 12.5 2.34375V3.59375H7.5V2.34375C7.5 2.25781 7.42969 2.1875 7.34375 2.1875H6.25C6.16406 2.1875 6.09375 2.25781 6.09375 2.34375V3.59375H2.8125C2.4668 3.59375 2.1875 3.87305 2.1875 4.21875V7.65625H17.8125V4.21875C17.8125 3.87305 17.5332 3.59375 17.1875 3.59375Z" fill="#F1890E"/>
</svg>
