<svg width="15" height="16" viewBox="0 0 15 16" fill="none" xmlns="http://www.w3.org/2000/svg">
<path d="M12.1875 1.4375H4.33594C4.27148 1.4375 4.21875 1.49023 4.21875 1.55469V2.375C4.21875 2.43945 4.27148 2.49219 4.33594 2.49219H11.6016V12.5703C11.6016 12.6348 11.6543 12.6875 11.7188 12.6875H12.5391C12.6035 12.6875 12.6562 12.6348 12.6562 12.5703V1.90625C12.6562 1.64697 12.4468 1.4375 12.1875 1.4375ZM10.3125 3.3125H2.8125C2.55322 3.3125 2.34375 3.52197 2.34375 3.78125V11.5552C2.34375 11.6797 2.39355 11.7983 2.48145 11.8862L5.02002 14.4248C5.05225 14.457 5.08887 14.4834 5.12842 14.5054V14.5332H5.18994C5.24121 14.5522 5.29541 14.5625 5.35107 14.5625H10.3125C10.5718 14.5625 10.7812 14.353 10.7812 14.0938V3.78125C10.7812 3.52197 10.5718 3.3125 10.3125 3.3125ZM5.5957 13.625H5.59277L3.39844 11.4307V11.4277H5.5957V13.625Z" fill="#BDBDBD"/>
</svg>
