<svg width="15" height="15" viewBox="0 0 15 15" fill="none" xmlns="http://www.w3.org/2000/svg">
<path d="M12.1875 0.9375H4.33594C4.27148 0.9375 4.21875 0.990234 4.21875 1.05469V1.875C4.21875 1.93945 4.27148 1.99219 4.33594 1.99219H11.6016V12.0703C11.6016 12.1348 11.6543 12.1875 11.7188 12.1875H12.5391C12.6035 12.1875 12.6562 12.1348 12.6562 12.0703V1.40625C12.6562 1.14697 12.4468 0.9375 12.1875 0.9375ZM10.3125 2.8125H2.8125C2.55322 2.8125 2.34375 3.02197 2.34375 3.28125V11.0552C2.34375 11.1797 2.39355 11.2983 2.48145 11.3862L5.02002 13.9248C5.05225 13.957 5.08887 13.9834 5.12842 14.0054V14.0332H5.18994C5.24121 14.0522 5.29541 14.0625 5.35107 14.0625H10.3125C10.5718 14.0625 10.7812 13.853 10.7812 13.5938V3.28125C10.7812 3.02197 10.5718 2.8125 10.3125 2.8125ZM5.5957 13.125H5.59277L3.39844 10.9307V10.9277H5.5957V13.125Z" fill="#BDBDBD"/>
</svg>
