<svg width="20" height="20" viewBox="0 0 20 20" fill="none" xmlns="http://www.w3.org/2000/svg">
<g clip-path="url(#clip0_1_3796)">
<path d="M0.00292969 3.75C0.00292969 3.08696 0.266322 2.45107 0.735163 1.98223C1.204 1.51339 1.83989 1.25 2.50293 1.25H17.5029C18.166 1.25 18.8019 1.51339 19.2707 1.98223C19.7395 2.45107 20.0029 3.08696 20.0029 3.75V16.25C20.0029 16.913 19.7395 17.5489 19.2707 18.0178C18.8019 18.4866 18.166 18.75 17.5029 18.75H2.50293C1.83989 18.75 1.204 18.4866 0.735163 18.0178C0.266322 17.5489 0.00292969 16.913 0.00292969 16.25V3.75ZM1.25293 15V16.25C1.25293 16.5815 1.38463 16.8995 1.61905 17.1339C1.85347 17.3683 2.17141 17.5 2.50293 17.5H17.5029C17.8344 17.5 18.1524 17.3683 18.3868 17.1339C18.6212 16.8995 18.7529 16.5815 18.7529 16.25V11.875L14.0317 9.44125C13.9145 9.38253 13.7817 9.36216 13.6523 9.38302C13.5229 9.40388 13.4033 9.46492 13.3104 9.5575L8.67293 14.195L5.34793 11.98C5.22788 11.9001 5.08388 11.8641 4.94035 11.8783C4.79682 11.8924 4.6626 11.9557 4.56043 12.0575L1.25293 15ZM7.50293 6.875C7.50293 6.37772 7.30539 5.90081 6.95376 5.54917C6.60212 5.19754 6.12521 5 5.62793 5C5.13065 5 4.65374 5.19754 4.3021 5.54917C3.95047 5.90081 3.75293 6.37772 3.75293 6.875C3.75293 7.37228 3.95047 7.84919 4.3021 8.20083C4.65374 8.55246 5.13065 8.75 5.62793 8.75C6.12521 8.75 6.60212 8.55246 6.95376 8.20083C7.30539 7.84919 7.50293 7.37228 7.50293 6.875Z" fill="#F1890E"/>
</g>
<defs>
<clipPath id="clip0_1_3796">
<rect width="20" height="20" fill="white"/>
</clipPath>
</defs>
</svg>
