<svg width="20" height="20" viewBox="0 0 20 20" fill="none" xmlns="http://www.w3.org/2000/svg">
<path d="M16.625 18.5H2.875C1.83945 18.5 1 17.6605 1 16.625V2.875C1 1.83945 1.83945 1 2.875 1H16.625C17.6605 1 18.5 1.83945 18.5 2.875V16.625C18.5 17.6605 17.6605 18.5 16.625 18.5ZM8.62945 14.6696L15.817 7.48207C16.061 7.23801 16.061 6.84227 15.817 6.5982L14.9331 5.71434C14.689 5.47027 14.2933 5.47023 14.0492 5.71434L8.1875 11.576L5.45082 8.8393C5.20676 8.59523 4.81102 8.59523 4.56691 8.8393L3.68305 9.72316C3.43898 9.96723 3.43898 10.363 3.68305 10.607L7.74555 14.6695C7.98965 14.9137 8.38535 14.9137 8.62945 14.6696Z" fill="#FAB34B"/>
</svg>
