<svg width="24" height="24" viewBox="0 0 24 24" fill="none" xmlns="http://www.w3.org/2000/svg">
<path d="M12 1.5C9.81276 1.50258 7.71584 2.3726 6.16923 3.91922C4.62261 5.46584 3.75259 7.56276 3.75001 9.75C3.74739 11.5374 4.33124 13.2763 5.41201 14.7C5.41201 14.7 5.63701 14.9963 5.67376 15.039L12 22.5L18.3293 15.0353C18.3623 14.9955 18.588 14.7 18.588 14.7L18.5888 14.6978C19.669 13.2747 20.2526 11.5366 20.25 9.75C20.2474 7.56276 19.3774 5.46584 17.8308 3.91922C16.2842 2.3726 14.1873 1.50258 12 1.5ZM12 12.75C11.4067 12.75 10.8266 12.5741 10.3333 12.2444C9.83995 11.9148 9.45543 11.4462 9.22837 10.8981C9.00131 10.3499 8.9419 9.74667 9.05765 9.16473C9.17341 8.58279 9.45913 8.04824 9.87869 7.62868C10.2982 7.20912 10.8328 6.9234 11.4147 6.80764C11.9967 6.69189 12.5999 6.7513 13.1481 6.97836C13.6962 7.20542 14.1648 7.58994 14.4944 8.08329C14.8241 8.57664 15 9.15666 15 9.75C14.999 10.5453 14.6826 11.3078 14.1202 11.8702C13.5578 12.4326 12.7954 12.749 12 12.75Z" fill="#F2F2F2"/>
</svg>
