<svg width="20" height="21" viewBox="0 0 20 21" fill="none" xmlns="http://www.w3.org/2000/svg">
<path d="M18.8895 9.53073C19.0959 9.37691 19.2491 9.16233 19.3275 8.91707C19.4058 8.67181 19.4055 8.40817 19.3264 8.16313C19.2474 7.91808 19.0937 7.70391 18.8868 7.55065C18.6799 7.39738 18.4302 7.31271 18.1728 7.30851L13.1728 7.11962C13.1482 7.11792 13.1246 7.10915 13.1049 7.09437C13.0852 7.07958 13.0702 7.05941 13.0617 7.03629L11.3339 2.36962C11.2471 2.1322 11.0894 1.92719 10.8822 1.78234C10.675 1.6375 10.4284 1.55981 10.1756 1.55981C9.92277 1.55981 9.67608 1.6375 9.46889 1.78234C9.26171 1.92719 9.10404 2.1322 9.01723 2.36962L7.29501 7.05295C7.28649 7.07608 7.27148 7.09625 7.25176 7.11104C7.23205 7.12582 7.20848 7.13459 7.1839 7.13629L2.1839 7.32518C1.92645 7.32938 1.67678 7.41405 1.46989 7.56731C1.263 7.72058 1.10926 7.93475 1.03023 8.17979C0.951207 8.42484 0.950852 8.68848 1.02922 8.93374C1.10759 9.179 1.26075 9.39358 1.46723 9.5474L5.38945 12.6307C5.40908 12.6462 5.42375 12.667 5.43165 12.6907C5.43955 12.7144 5.44033 12.7399 5.4339 12.7641L4.0839 17.5474C4.01394 17.791 4.02072 18.0502 4.10331 18.2898C4.1859 18.5294 4.34029 18.7377 4.54548 18.8864C4.75067 19.0352 4.9967 19.1171 5.25009 19.121C5.50349 19.125 5.75195 19.0508 5.96167 18.9085L10.1061 16.1307C10.1265 16.1166 10.1508 16.1091 10.1756 16.1091C10.2004 16.1091 10.2246 16.1166 10.245 16.1307L14.3895 18.9085C14.5963 19.0556 14.8439 19.1347 15.0978 19.1347C15.3517 19.1347 15.5992 19.0556 15.8061 18.9085C16.0114 18.7612 16.1659 18.5539 16.2485 18.3151C16.3311 18.0763 16.3376 17.8178 16.2672 17.5752L14.9061 12.7752C14.8989 12.7511 14.8993 12.7253 14.9073 12.7015C14.9152 12.6776 14.9303 12.6568 14.9506 12.6418L18.8895 9.53073Z" fill="#FCD85C"/>
</svg>
