<svg width="20" height="21" viewBox="0 0 20 21" fill="none" xmlns="http://www.w3.org/2000/svg">
<path d="M18.8895 9.3376C19.0959 9.18378 19.2491 8.9692 19.3275 8.72394C19.4058 8.47868 19.4055 8.21504 19.3264 7.97C19.2474 7.72495 19.0937 7.51078 18.8868 7.35752C18.6799 7.20425 18.4302 7.11958 18.1728 7.11538L13.1728 6.92649C13.1482 6.92479 13.1246 6.91602 13.1049 6.90124C13.0852 6.88645 13.0702 6.86628 13.0617 6.84316L11.3339 2.17649C11.2471 1.93907 11.0894 1.73406 10.8822 1.58921C10.675 1.44437 10.4284 1.36668 10.1756 1.36668C9.92277 1.36668 9.67608 1.44437 9.46889 1.58921C9.26171 1.73406 9.10404 1.93907 9.01723 2.17649L7.29501 6.85982C7.28649 6.88295 7.27148 6.90312 7.25176 6.9179C7.23205 6.93269 7.20848 6.94146 7.1839 6.94316L2.1839 7.13205C1.92645 7.13625 1.67678 7.22092 1.46989 7.37418C1.263 7.52745 1.10926 7.74162 1.03023 7.98666C0.951207 8.23171 0.950852 8.49535 1.02922 8.74061C1.10759 8.98587 1.26075 9.20045 1.46723 9.35427L5.38945 12.4376C5.40908 12.453 5.42375 12.4739 5.43165 12.4976C5.43955 12.5213 5.44033 12.5468 5.4339 12.5709L4.0839 17.3543C4.01394 17.5978 4.02072 17.8571 4.10331 18.0967C4.1859 18.3362 4.34029 18.5446 4.54548 18.6933C4.75067 18.842 4.9967 18.924 5.25009 18.9279C5.50349 18.9319 5.75195 18.8576 5.96167 18.7154L10.1061 15.9376C10.1265 15.9235 10.1508 15.916 10.1756 15.916C10.2004 15.916 10.2246 15.9235 10.245 15.9376L14.3895 18.7154C14.5963 18.8625 14.8439 18.9416 15.0978 18.9416C15.3517 18.9416 15.5992 18.8625 15.8061 18.7154C16.0114 18.568 16.1659 18.3607 16.2485 18.122C16.3311 17.8832 16.3376 17.6247 16.2672 17.382L14.9061 12.582C14.8989 12.5579 14.8993 12.5322 14.9073 12.5084C14.9152 12.4845 14.9303 12.4637 14.9506 12.4487L18.8895 9.3376Z" fill="#FCD85C"/>
</svg>
