<svg width="20" height="21" viewBox="0 0 20 21" fill="none" xmlns="http://www.w3.org/2000/svg">
<path d="M18.8895 10.1076C19.0959 9.95382 19.2491 9.73923 19.3275 9.49398C19.4058 9.24872 19.4055 8.98508 19.3264 8.74003C19.2474 8.49498 19.0937 8.28081 18.8868 8.12755C18.6799 7.97429 18.4302 7.88962 18.1728 7.88541L13.1728 7.69652C13.1482 7.69483 13.1246 7.68606 13.1049 7.67127C13.0852 7.65649 13.0702 7.63632 13.0617 7.61319L11.3339 2.94653C11.2471 2.7091 11.0894 2.50409 10.8822 2.35925C10.675 2.2144 10.4284 2.13672 10.1756 2.13672C9.92277 2.13672 9.67608 2.2144 9.46889 2.35925C9.26171 2.50409 9.10404 2.7091 9.01723 2.94653L7.29501 7.62986C7.28649 7.65298 7.27148 7.67315 7.25176 7.68794C7.23205 7.70272 7.20848 7.71149 7.1839 7.71319L2.1839 7.90208C1.92645 7.90629 1.67678 7.99095 1.46989 8.14422C1.263 8.29748 1.10926 8.51165 1.03023 8.7567C0.951207 9.00175 0.950852 9.26538 1.02922 9.51064C1.10759 9.7559 1.26075 9.97048 1.46723 10.1243L5.38945 13.2076C5.40908 13.2231 5.42375 13.2439 5.43165 13.2676C5.43955 13.2913 5.44033 13.3168 5.4339 13.341L4.0839 18.1243C4.01394 18.3679 4.02072 18.6271 4.10331 18.8667C4.1859 19.1063 4.34029 19.3146 4.54548 19.4633C4.75067 19.6121 4.9967 19.694 5.25009 19.6979C5.50349 19.7019 5.75195 19.6277 5.96167 19.4854L10.1061 16.7076C10.1265 16.6935 10.1508 16.686 10.1756 16.686C10.2004 16.686 10.2246 16.6935 10.245 16.7076L14.3895 19.4854C14.5963 19.6325 14.8439 19.7116 15.0978 19.7116C15.3517 19.7116 15.5992 19.6325 15.8061 19.4854C16.0114 19.3381 16.1659 19.1308 16.2485 18.892C16.3311 18.6532 16.3376 18.3947 16.2672 18.1521L14.9061 13.3521C14.8989 13.328 14.8993 13.3022 14.9073 13.2784C14.9152 13.2545 14.9303 13.2337 14.9506 13.2187L18.8895 10.1076Z" fill="#FCD85C"/>
</svg>
