<svg width="20" height="21" viewBox="0 0 20 21" fill="none" xmlns="http://www.w3.org/2000/svg">
<path d="M18.8895 9.33762C19.0959 9.1838 19.2491 8.96921 19.3275 8.72396C19.4058 8.4787 19.4055 8.21506 19.3264 7.97001C19.2474 7.72496 19.0937 7.51079 18.8868 7.35753C18.6799 7.20427 18.4302 7.1196 18.1728 7.11539L13.1728 6.92651C13.1482 6.92481 13.1246 6.91604 13.1049 6.90125C13.0852 6.88647 13.0702 6.8663 13.0617 6.84317L11.3339 2.17651C11.2471 1.93908 11.0894 1.73407 10.8822 1.58923C10.675 1.44438 10.4284 1.3667 10.1756 1.3667C9.92277 1.3667 9.67608 1.44438 9.46889 1.58923C9.26171 1.73407 9.10404 1.93908 9.01723 2.17651L7.29501 6.85984C7.28649 6.88296 7.27148 6.90313 7.25176 6.91792C7.23205 6.93271 7.20848 6.94147 7.1839 6.94317L2.1839 7.13206C1.92645 7.13627 1.67678 7.22094 1.46989 7.3742C1.263 7.52746 1.10926 7.74163 1.03023 7.98668C0.951207 8.23173 0.950852 8.49536 1.02922 8.74062C1.10759 8.98588 1.26075 9.20046 1.46723 9.35428L5.38945 12.4376C5.40908 12.4531 5.42375 12.4739 5.43165 12.4976C5.43955 12.5213 5.44033 12.5468 5.4339 12.5709L4.0839 17.3543C4.01394 17.5979 4.02072 17.8571 4.10331 18.0967C4.1859 18.3363 4.34029 18.5446 4.54548 18.6933C4.75067 18.8421 4.9967 18.924 5.25009 18.9279C5.50349 18.9319 5.75195 18.8577 5.96167 18.7154L10.1061 15.9376C10.1265 15.9235 10.1508 15.916 10.1756 15.916C10.2004 15.916 10.2246 15.9235 10.245 15.9376L14.3895 18.7154C14.5963 18.8625 14.8439 18.9416 15.0978 18.9416C15.3517 18.9416 15.5992 18.8625 15.8061 18.7154C16.0114 18.5681 16.1659 18.3607 16.2485 18.122C16.3311 17.8832 16.3376 17.6247 16.2672 17.3821L14.9061 12.5821C14.8989 12.558 14.8993 12.5322 14.9073 12.5084C14.9152 12.4845 14.9303 12.4637 14.9506 12.4487L18.8895 9.33762Z" fill="#FCD85C"/>
</svg>
