<svg width="20" height="21" viewBox="0 0 20 21" fill="none" xmlns="http://www.w3.org/2000/svg">
<path d="M18.8895 9.57224C19.0959 9.41842 19.2491 9.20383 19.3275 8.95857C19.4058 8.71332 19.4055 8.44968 19.3264 8.20463C19.2474 7.95958 19.0937 7.74541 18.8868 7.59215C18.6799 7.43889 18.4302 7.35422 18.1728 7.35001L13.1728 7.16112C13.1482 7.15943 13.1246 7.15066 13.1049 7.13587C13.0852 7.12109 13.0702 7.10092 13.0617 7.07779L11.3339 2.41112C11.2471 2.1737 11.0894 1.96869 10.8822 1.82384C10.675 1.679 10.4284 1.60132 10.1756 1.60132C9.92277 1.60132 9.67608 1.679 9.46889 1.82384C9.26171 1.96869 9.10404 2.1737 9.01723 2.41112L7.29501 7.09446C7.28649 7.11758 7.27148 7.13775 7.25176 7.15254C7.23205 7.16732 7.20848 7.17609 7.1839 7.17779L2.1839 7.36668C1.92645 7.37088 1.67678 7.45555 1.46989 7.60882C1.263 7.76208 1.10926 7.97625 1.03023 8.2213C0.951207 8.46635 0.950852 8.72998 1.02922 8.97524C1.10759 9.2205 1.26075 9.43508 1.46723 9.5889L5.38945 12.6722C5.40908 12.6877 5.42375 12.7085 5.43165 12.7322C5.43955 12.7559 5.44033 12.7814 5.4339 12.8056L4.0839 17.5889C4.01394 17.8325 4.02072 18.0917 4.10331 18.3313C4.1859 18.5709 4.34029 18.7792 4.54548 18.9279C4.75067 19.0767 4.9967 19.1586 5.25009 19.1625C5.50349 19.1665 5.75195 19.0923 5.96167 18.95L10.1061 16.1722C10.1265 16.1581 10.1508 16.1506 10.1756 16.1506C10.2004 16.1506 10.2246 16.1581 10.245 16.1722L14.3895 18.95C14.5963 19.0971 14.8439 19.1762 15.0978 19.1762C15.3517 19.1762 15.5992 19.0971 15.8061 18.95C16.0114 18.8027 16.1659 18.5954 16.2485 18.3566C16.3311 18.1178 16.3376 17.8593 16.2672 17.6167L14.9061 12.8167C14.8989 12.7926 14.8993 12.7668 14.9073 12.743C14.9152 12.7191 14.9303 12.6983 14.9506 12.6833L18.8895 9.57224Z" fill="#FCD85C"/>
</svg>
