<svg width="20" height="20" viewBox="0 0 20 20" fill="none" xmlns="http://www.w3.org/2000/svg">
<path fill-rule="evenodd" clip-rule="evenodd" d="M15.4419 4.55806C15.686 4.80214 15.686 5.19786 15.4419 5.44194L5.44194 15.4419C5.19786 15.686 4.80214 15.686 4.55806 15.4419C4.31398 15.1979 4.31398 14.8021 4.55806 14.5581L14.5581 4.55806C14.8021 4.31398 15.1979 4.31398 15.4419 4.55806Z" fill="#BDBDBD"/>
<path fill-rule="evenodd" clip-rule="evenodd" d="M4.55806 4.55806C4.80214 4.31398 5.19786 4.31398 5.44194 4.55806L15.4419 14.5581C15.686 14.8021 15.686 15.1979 15.4419 15.4419C15.1979 15.686 14.8021 15.686 14.5581 15.4419L4.55806 5.44194C4.31398 5.19786 4.31398 4.80214 4.55806 4.55806Z" fill="#BDBDBD"/>
</svg>
