<svg width="20" height="20" viewBox="0 0 20 20" fill="none" xmlns="http://www.w3.org/2000/svg">
<path d="M16.9308 3.46302C15.6561 2.87812 14.2892 2.44719 12.8599 2.20038C12.8339 2.19561 12.8079 2.20752 12.7945 2.23133C12.6187 2.544 12.4239 2.95192 12.2876 3.27254C10.7503 3.0424 9.22099 3.0424 7.71527 3.27254C7.57887 2.94479 7.37707 2.544 7.20048 2.23133C7.18707 2.20831 7.16107 2.19641 7.13504 2.20038C5.70659 2.4464 4.33963 2.87733 3.06411 3.46302C3.05307 3.46778 3.04361 3.47572 3.03732 3.48603C0.444493 7.35967 -0.265792 11.1381 0.0826501 14.8697C0.0842267 14.8879 0.0944749 14.9054 0.108665 14.9165C1.81934 16.1728 3.47642 16.9354 5.10273 17.441C5.12876 17.4489 5.15634 17.4394 5.1729 17.4179C5.55761 16.8926 5.90054 16.3387 6.19456 15.7561C6.21192 15.722 6.19535 15.6815 6.15989 15.668C5.61594 15.4617 5.098 15.2101 4.59977 14.9244C4.56037 14.9014 4.55721 14.845 4.59347 14.8181C4.69831 14.7395 4.80318 14.6578 4.9033 14.5752C4.92141 14.5601 4.94665 14.557 4.96794 14.5665C8.24107 16.0609 11.7846 16.0609 15.0191 14.5665C15.0404 14.5562 15.0657 14.5594 15.0846 14.5744C15.1847 14.657 15.2895 14.7395 15.3952 14.8181C15.4314 14.845 15.4291 14.9014 15.3897 14.9244C14.8914 15.2157 14.3735 15.4617 13.8288 15.6672C13.7933 15.6807 13.7775 15.722 13.7949 15.7561C14.0952 16.3378 14.4381 16.8918 14.8157 17.4172C14.8315 17.4394 14.8599 17.4489 14.8859 17.441C16.5201 16.9354 18.1772 16.1728 19.8879 14.9165C19.9028 14.9054 19.9123 14.8887 19.9139 14.8705C20.3309 10.5563 19.2154 6.80891 16.9568 3.48682C16.9513 3.47572 16.9419 3.46778 16.9308 3.46302ZM6.68335 12.5975C5.69792 12.5975 4.88594 11.6928 4.88594 10.5818C4.88594 9.47068 5.68217 8.56598 6.68335 8.56598C7.69239 8.56598 8.49651 9.47862 8.48073 10.5818C8.48073 11.6928 7.68451 12.5975 6.68335 12.5975ZM13.329 12.5975C12.3435 12.5975 11.5316 11.6928 11.5316 10.5818C11.5316 9.47068 12.3278 8.56598 13.329 8.56598C14.338 8.56598 15.1421 9.47862 15.1264 10.5818C15.1264 11.6928 14.338 12.5975 13.329 12.5975Z" fill="white"/>
</svg>
