<svg width="20" height="20" viewBox="0 0 20 20" fill="none" xmlns="http://www.w3.org/2000/svg">
<path d="M2.15506 1.31626C2.05044 1.26393 1.93323 1.24202 1.81676 1.25301C1.7003 1.264 1.58926 1.30746 1.49627 1.37844C1.40328 1.44941 1.33208 1.54506 1.29077 1.65451C1.24945 1.76395 1.23968 1.88279 1.26256 1.99751L3.01631 8.06001C3.04902 8.17299 3.11293 8.27445 3.20072 8.35272C3.2885 8.431 3.39659 8.48292 3.51256 8.50251L10.6251 9.69376C10.9601 9.76001 10.9601 10.24 10.6251 10.3063L3.51256 11.4975C3.39659 11.5171 3.2885 11.569 3.20072 11.6473C3.11293 11.7256 3.04902 11.827 3.01631 11.94L1.26256 18.0025C1.23968 18.1172 1.24945 18.2361 1.29077 18.3455C1.33208 18.455 1.40328 18.5506 1.49627 18.6216C1.58926 18.6926 1.7003 18.736 1.81676 18.747C1.93323 18.758 2.05044 18.7361 2.15506 18.6838L18.4051 10.5588C18.5087 10.5068 18.5959 10.427 18.6568 10.3283C18.7178 10.2297 18.75 10.116 18.75 10C18.75 9.88404 18.7178 9.77036 18.6568 9.67168C18.5959 9.573 18.5087 9.49322 18.4051 9.44126L2.15506 1.31626Z" fill="#BDBDBD"/>
</svg>
