<svg width="20" height="20" viewBox="0 0 20 20" fill="none" xmlns="http://www.w3.org/2000/svg">
<path d="M2.15458 1.31602C2.04995 1.26369 1.93274 1.24177 1.81628 1.25277C1.69981 1.26376 1.58877 1.30721 1.49578 1.37819C1.4028 1.44917 1.33159 1.54482 1.29028 1.65426C1.24896 1.7637 1.23919 1.88255 1.26208 1.99727L3.01583 8.05977C3.04853 8.17275 3.11244 8.2742 3.20023 8.35248C3.28801 8.43076 3.3961 8.48268 3.51208 8.50227L10.6246 9.69352C10.9596 9.75977 10.9596 10.2398 10.6246 10.306L3.51208 11.4973C3.3961 11.5169 3.28801 11.5688 3.20023 11.6471C3.11244 11.7253 3.04853 11.8268 3.01583 11.9398L1.26208 18.0023C1.23919 18.117 1.24896 18.2358 1.29028 18.3453C1.33159 18.4547 1.4028 18.5504 1.49578 18.6213C1.58877 18.6923 1.69981 18.7358 1.81628 18.7468C1.93274 18.7578 2.04995 18.7358 2.15458 18.6835L18.4046 10.5585C18.5083 10.5066 18.5954 10.4268 18.6563 10.3281C18.7173 10.2294 18.7495 10.1157 18.7495 9.99977C18.7495 9.8838 18.7173 9.77012 18.6563 9.67144C18.5954 9.57276 18.5083 9.49298 18.4046 9.44102L2.15458 1.31602Z" fill="#BDBDBD"/>
</svg>
