<svg width="40" height="40" viewBox="0 0 40 40" fill="none" xmlns="http://www.w3.org/2000/svg">
<rect width="40" height="40" rx="20" fill="#F2F2F2"/>
<path fill-rule="evenodd" clip-rule="evenodd" d="M32.3394 20.2956C32.3394 19.3737 32.2566 18.4874 32.103 17.6365H19.8594V22.6651H26.8557C26.5544 24.2901 25.6385 25.6669 24.2616 26.5887V29.8506H28.463C30.9212 27.5874 32.3394 24.2547 32.3394 20.2956Z" fill="#4285F4"/>
<path fill-rule="evenodd" clip-rule="evenodd" d="M19.8595 33C23.3695 33 26.3122 31.8359 28.4631 29.8504L24.2617 26.5886C23.0976 27.3686 21.6085 27.8295 19.8595 27.8295C16.4735 27.8295 13.6076 25.5427 12.5854 22.47H8.24219V25.8382C10.3813 30.0868 14.7776 33 19.8595 33Z" fill="#34A853"/>
<path fill-rule="evenodd" clip-rule="evenodd" d="M12.5853 22.47C12.3253 21.69 12.1776 20.8569 12.1776 20C12.1776 19.1432 12.3253 18.31 12.5853 17.53V14.1619H8.2421C7.36165 15.9169 6.85938 17.9023 6.85938 20C6.85938 22.0978 7.36165 24.0832 8.2421 25.8382L12.5853 22.47Z" fill="#FBBC05"/>
<path fill-rule="evenodd" clip-rule="evenodd" d="M19.8595 12.1705C21.7681 12.1705 23.4817 12.8264 24.829 14.1145L28.5576 10.3859C26.3063 8.28818 23.3635 7 19.8595 7C14.7776 7 10.3813 9.91318 8.24219 14.1618L12.5854 17.53C13.6076 14.4573 16.4735 12.1705 19.8595 12.1705Z" fill="#EA4335"/>
</svg>
