<svg width="26" height="26" viewBox="0 0 26 26" fill="none" xmlns="http://www.w3.org/2000/svg">
<path d="M20.8977 8.79261C20.5513 8.79261 20.2703 9.07355 20.2703 9.41994V23.7954H2.20466V5.72981H16.2792C16.6257 5.72981 16.9066 5.44887 16.9066 5.10248C16.9066 4.75609 16.6257 4.47515 16.2792 4.47515H1.57733C1.23093 4.47515 0.95 4.75608 0.95 5.10248V24.4227C0.95 24.7691 1.23093 25.0501 1.57733 25.0501H20.8977C21.2441 25.0501 21.525 24.7691 21.525 24.4227V9.41994C21.525 9.07355 21.2441 8.79261 20.8977 8.79261Z" fill="#B67CF7" stroke="#B67CF7" stroke-width="0.1"/>
<path d="M24.8664 1.1338C24.6214 0.888848 24.2242 0.888612 23.9792 1.13382M24.8664 1.1338L24.831 1.16916M24.8664 1.1338C24.8664 1.1338 24.8664 1.1338 24.8664 1.13379L24.831 1.16916M24.8664 1.1338C25.1115 1.37878 25.1115 1.77599 24.8664 2.02095L9.18162 17.7058C9.0591 17.8283 8.89852 17.8896 8.73799 17.8896C8.57749 17.8896 8.4168 17.8283 8.29437 17.7058L8.32972 17.6704M23.9792 1.13382L24.831 1.16916M23.9792 1.13382L24.0146 1.16916L8.77325 16.4104L8.7379 16.3751M23.9792 1.13382L23.9793 1.1338L8.29435 17.7057M23.9792 1.13382L8.7379 16.3751M23.9792 1.13382L8.29435 17.7057M24.831 1.16916C25.0566 1.3946 25.0566 1.76015 24.831 1.9856L9.14626 17.6704C9.03349 17.7832 8.88579 17.8396 8.73799 17.8396C8.5902 17.8396 8.4424 17.7832 8.32972 17.6704M8.32972 17.6704L8.29435 17.7057M8.32972 17.6704L4.131 13.4717M8.29435 17.7057L4.09565 13.507M4.131 13.4717C3.90555 13.2463 3.90555 12.8808 4.131 12.6553M4.131 13.4717L4.09565 13.507M4.131 13.4717L4.09564 13.507L4.09565 13.507M4.131 12.6553C4.35635 12.4298 4.72199 12.4298 4.94744 12.6553M4.131 12.6553L4.09564 12.62M4.131 12.6553L4.09563 12.62C4.09563 12.62 4.09564 12.62 4.09564 12.62M4.94744 12.6553L8.70254 16.4104L8.7379 16.3751M4.94744 12.6553L4.9828 12.62L8.7379 16.3751M4.94744 12.6553L4.98279 12.62C4.73783 12.3749 4.34053 12.3749 4.09564 12.62M4.09564 12.62C3.85067 12.8649 3.85066 13.2622 4.09565 13.507" fill="#B67CF7" stroke="#B67CF7" stroke-width="0.1"/>
</svg>
