<svg width="24" height="14" viewBox="0 0 24 14" fill="none" xmlns="http://www.w3.org/2000/svg">
<path d="M8.89271 9.44855C7.7849 9.44855 6.88965 10.347 6.88965 11.4548C6.88965 12.5594 7.7849 13.4579 8.89271 13.4579C10.0005 13.4579 10.8958 12.5594 10.8958 11.4548C10.8957 10.347 10.0005 9.44855 8.89271 9.44855ZM8.89271 12.4564C8.33879 12.4564 7.89114 12.0055 7.89114 11.4547C7.89114 10.9009 8.33879 10.4532 8.89271 10.4532C9.44659 10.4532 9.89424 10.9009 9.89424 11.4547C9.8942 12.0055 9.44659 12.4564 8.89271 12.4564ZM24 7.96663V10.1055C24 10.639 23.5675 11.0716 23.0339 11.0716H22.0002C21.8134 9.78984 20.7088 8.80443 19.3756 8.80443C18.0456 8.80443 16.941 9.78988 16.7542 11.0716H11.5147C11.3279 9.78984 10.2233 8.80443 8.89333 8.80443C7.56333 8.80443 6.45875 9.78988 6.272 11.0716H4.97741C4.44384 11.0716 4.01133 10.6391 4.01133 10.1055V7.96663H24ZM19.3782 9.44855C18.2704 9.44855 17.3719 10.347 17.3719 11.4548C17.3719 12.5594 18.2704 13.4579 19.3782 13.4579C20.4827 13.4579 21.3812 12.5594 21.3812 11.4548C21.3812 10.347 20.4827 9.44855 19.3782 9.44855ZM19.3782 12.4564C18.8242 12.4564 18.3766 12.0055 18.3766 11.4547C18.3766 10.9009 18.8242 10.4532 19.3782 10.4532C19.9288 10.4532 20.3797 10.9009 20.3797 11.4547C20.3797 12.0055 19.9288 12.4564 19.3782 12.4564ZM23.6193 5.81274L19.8226 2.0578C19.5811 1.81949 19.2558 1.68424 18.9176 1.68424H17.0016V0.966078C17.0016 0.431529 16.57 0 16.0355 0H4.97675C4.44537 0 4.01067 0.431568 4.01067 0.966078V1.11745L0.0901961 1.56929L7.0371 2.47392L0 3.17298L7.01231 4.16996L0 4.77796L4.0109 5.53443L4.01063 7.43259H23.9993V6.72729C23.9993 6.38271 23.8609 6.05427 23.6193 5.81274ZM21.9641 5.93831H18.2897C18.206 5.93831 18.1383 5.87071 18.1383 5.78698V2.94984C18.1383 2.86612 18.206 2.79847 18.2897 2.79847H18.9885C19.0271 2.79847 19.0658 2.81459 19.0948 2.84035L22.0672 5.67749C22.1669 5.77086 22.0993 5.93831 21.9641 5.93831Z" fill="#B67CF7"/>
</svg>
