<svg width="40" height="40" viewBox="0 0 40 40" fill="none" xmlns="http://www.w3.org/2000/svg">
<mask id="mask0_1_2760" style="mask-type:alpha" maskUnits="userSpaceOnUse" x="0" y="0" width="40" height="40">
<circle cx="20" cy="20" r="20" fill="#D9D9D9"/>
</mask>
<g mask="url(#mask0_1_2760)">
<path d="M28.3866 15.4839C30.5245 15.4839 32.2576 13.7508 32.2576 11.6129C32.2576 9.47503 30.5245 7.74194 28.3866 7.74194C26.2487 7.74194 24.5156 9.47503 24.5156 11.6129C24.5156 13.7508 26.2487 15.4839 28.3866 15.4839Z" fill="#A83229"/>
<path d="M25.8066 40H3.87109L14.8388 29.0322L25.8066 40Z" fill="#4A9BF6"/>
<path d="M39.9993 3.87085V36.1289C39.9993 37.1556 39.5915 38.1402 38.8655 38.8661C38.1396 39.592 37.155 39.9999 36.1283 39.9999H33.5477L18.709 25.1612L23.6187 20.2515C25.1045 22.1894 26.6962 24.0438 28.3864 25.8063C28.3864 25.8063 37.4187 16.5999 37.4187 11.6128C37.4195 10.1687 37.072 8.74565 36.4058 7.4644L39.9993 3.87085Z" fill="#D3D9F2"/>
<path d="M39.9997 3.87097L36.4061 7.46452C35.5505 5.80247 34.1972 4.44915 32.5352 3.59355L36.1287 0C37.1553 0 38.1399 0.407833 38.8659 1.13378C39.5918 1.85973 39.9997 2.84432 39.9997 3.87097Z" fill="#FFDF64"/>
<path d="M33.5476 40.0001H25.8056L14.8379 29.0323L18.7089 25.1614L33.5476 40.0001Z" fill="#F7F7FF"/>
<path d="M23.6194 20.2517L18.7097 25.1614L14.8387 29.0324L3.87097 40.0001C2.84432 40.0001 1.85973 39.5923 1.13378 38.8663C0.407833 38.1404 0 37.1558 0 36.1291L20.5742 15.5549C21.453 17.2047 22.4718 18.7761 23.6194 20.2517Z" fill="#FFDF64"/>
<path d="M36.129 0L32.5355 3.59355C31.1592 2.88008 29.6223 2.53311 28.0729 2.58607C26.5236 2.63903 25.014 3.09014 23.6896 3.89593C22.3652 4.70171 21.2706 5.83501 20.5114 7.18664C19.7522 8.53826 19.3539 10.0626 19.3548 11.6129C19.4551 13.0027 19.8722 14.3511 20.5742 15.5548L0 36.129V3.87097C0 2.84432 0.407833 1.85973 1.13378 1.13378C1.85973 0.407833 2.84432 0 3.87097 0H36.129Z" fill="#28BE77"/>
<path d="M36.4071 7.46449C37.0733 8.74574 37.4208 10.1688 37.42 11.6129C37.42 16.6 28.3877 25.8064 28.3877 25.8064C26.6975 24.0439 25.1058 22.1895 23.62 20.2516C22.4725 18.776 21.4537 17.2046 20.5748 15.5548C19.8728 14.3511 19.4557 13.0027 19.3555 11.6129C19.3572 9.59004 20.0378 7.62632 21.2884 6.03637C22.539 4.44643 24.2871 3.32231 26.2526 2.84413C28.2181 2.36595 30.2872 2.5614 32.1284 3.39916C33.9696 4.23692 35.4763 5.6685 36.4071 7.46449ZM32.2587 11.6129C32.2587 10.8473 32.0317 10.0989 31.6063 9.46228C31.181 8.82571 30.5764 8.32955 29.8691 8.03657C29.1618 7.74359 28.3834 7.66693 27.6325 7.81629C26.8816 7.96565 26.1919 8.33433 25.6505 8.87569C25.1092 9.41705 24.7405 10.1068 24.5911 10.8577C24.4418 11.6086 24.5184 12.3869 24.8114 13.0942C25.1044 13.8016 25.6006 14.4061 26.2371 14.8315C26.8737 15.2568 27.6221 15.4838 28.3877 15.4838C29.4144 15.4838 30.399 15.076 31.1249 14.3501C31.8509 13.6241 32.2587 12.6395 32.2587 11.6129Z" fill="#D73D3F"/>
<path d="M6.45174 37.4194L3.87109 40.0001H25.8066L23.2259 37.4194H6.45174Z" fill="#3B7CC4"/>
<path d="M36.1281 37.4193H30.9668L33.5474 40H36.1281C37.1547 40 38.1393 39.5921 38.8653 38.8662C39.5912 38.1402 39.9991 37.1556 39.9991 36.129V33.5483C39.9991 34.575 39.5912 35.5596 38.8653 36.2855C38.1393 37.0115 37.1547 37.4193 36.1281 37.4193Z" fill="#AEB2D4"/>
<path d="M39.4297 4.44053C39.8021 5.04519 39.9993 5.74136 39.9994 6.45149V3.87085L39.4297 4.44053Z" fill="#B8BCE0"/>
<path d="M36.1295 2.58065C36.7931 2.58123 37.4454 2.75266 38.0236 3.07843C38.6018 3.40419 39.0864 3.87332 39.4308 4.44065L40.0004 3.87097C40.0004 2.84432 39.5926 1.85973 38.8667 1.13378C38.1407 0.407833 37.1561 0 36.1295 0L33.5488 2.58065H36.1295Z" fill="#FFB844"/>
<path d="M23.2266 37.4194L25.8072 40.0001H33.5491L30.9685 37.4194H23.2266Z" fill="#CACFE8"/>
<path d="M3.87097 37.4193C3.20732 37.4187 2.555 37.2473 1.9768 36.9215C1.39861 36.5958 0.914017 36.1267 0.569677 35.5593L0 36.129C0 37.1556 0.407833 38.1402 1.13378 38.8662C1.85973 39.5921 2.84432 40 3.87097 40L6.45161 37.4193H3.87097Z" fill="#FFB844"/>
<path d="M0 33.5483V36.129L0.569677 35.5593C0.197283 34.9546 6.69099e-05 34.2585 0 33.5483Z" fill="#1FA463"/>
<path d="M3.87097 2.58065H33.5484L36.129 0H3.87097C2.84432 0 1.85973 0.407833 1.13378 1.13378C0.407833 1.85973 0 2.84432 0 3.87097V6.45161C0 5.42497 0.407833 4.44037 1.13378 3.71443C1.85973 2.98848 2.84432 2.58065 3.87097 2.58065Z" fill="#1FA463"/>
<path d="M7.7424 13.5485C6.76041 13.5485 5.79445 13.2995 4.93485 12.8248C4.07524 12.35 3.35008 11.665 2.82719 10.8338C2.3043 10.0027 2.00075 9.05242 1.94493 8.07202C1.88912 7.09162 2.08287 6.11308 2.50805 5.22791C2.93323 4.34275 3.57596 3.57987 4.37613 3.01064C5.1763 2.4414 6.10777 2.0844 7.08342 1.97302C8.05907 1.86164 9.04703 1.99952 9.95491 2.37377C10.8628 2.74802 11.6609 3.3464 12.2747 4.11297L10.2585 5.72587C9.81772 5.17613 9.20903 4.78584 8.52549 4.61467C7.84194 4.44349 7.12115 4.50085 6.47328 4.77796C5.82541 5.05507 5.28609 5.5367 4.93776 6.14923C4.58943 6.76176 4.45125 7.47151 4.54433 8.16998C4.63742 8.86845 4.95665 9.51724 5.45323 10.0172C5.94982 10.5171 6.59645 10.8407 7.29428 10.9385C7.99211 11.0362 8.70277 10.9028 9.31762 10.5586C9.93248 10.2144 10.4177 9.67832 10.6992 9.03232H7.7424V6.45168H12.2585C12.6007 6.45168 12.9289 6.58762 13.1709 6.8296C13.4129 7.07159 13.5489 7.39979 13.5489 7.742C13.547 9.28139 12.9346 10.7572 11.8461 11.8457C10.7576 12.9342 9.28179 13.5466 7.7424 13.5485Z" fill="#F7F7FF"/>
<path d="M28.3866 10.3226C29.1863 10.3235 29.9662 10.5721 30.6189 11.0342C31.2716 11.4963 31.7652 12.1492 32.0318 12.9032C32.2405 12.319 32.3059 11.6932 32.2222 11.0785C32.1385 10.4637 31.9084 9.87811 31.551 9.37095C31.1937 8.86379 30.7197 8.44994 30.169 8.16427C29.6183 7.87861 29.007 7.72949 28.3866 7.72949C27.7662 7.72949 27.1549 7.87861 26.6042 8.16427C26.0535 8.44994 25.5795 8.86379 25.2222 9.37095C24.8648 9.87811 24.6346 10.4637 24.551 11.0785C24.4673 11.6932 24.5326 12.319 24.7414 12.9032C25.008 12.1492 25.5016 11.4963 26.1543 11.0342C26.807 10.5721 27.5869 10.3235 28.3866 10.3226Z" fill="#91323C"/>
<path d="M19.4845 12.7161C19.4012 13.2042 19.358 13.6983 19.3555 14.1935C19.3785 14.929 19.5241 15.6556 19.7864 16.3432L20.5748 15.5548C20.0882 14.6606 19.7216 13.7061 19.4845 12.7161Z" fill="#1FA463"/>
<path d="M37.2855 12.7322C36.1816 17.8586 28.3868 25.8064 28.3868 25.8064C26.6966 24.0439 25.1049 22.1894 23.619 20.2515L22.5352 21.3354C22.8893 21.8431 23.25 22.3457 23.619 22.8322C25.1049 24.7701 26.6966 26.6245 28.3868 28.387C28.3868 28.387 37.419 19.1806 37.419 14.1935C37.4147 13.7035 37.37 13.2148 37.2855 12.7322Z" fill="#AEB2D4"/>
<path d="M20.5735 15.5549L19.7852 16.3433C20.0057 16.9585 20.2691 17.5574 20.5735 18.1356C21.1552 19.2448 21.8104 20.3139 22.5348 21.3356L23.6187 20.2517C22.4712 18.7761 21.4524 17.2047 20.5735 15.5549Z" fill="#FFB844"/>
</g>
</svg>
