<svg width="40" height="40" viewBox="0 0 40 40" fill="none" xmlns="http://www.w3.org/2000/svg">
<mask id="mask0_1_3350" style="mask-type:alpha" maskUnits="userSpaceOnUse" x="0" y="0" width="40" height="40">
<circle cx="20" cy="20" r="20" fill="#D9D9D9"/>
</mask>
<g mask="url(#mask0_1_3350)">
<path d="M28.3876 15.4839C30.5254 15.4839 32.2585 13.7508 32.2585 11.6129C32.2585 9.47503 30.5254 7.74194 28.3876 7.74194C26.2497 7.74194 24.5166 9.47503 24.5166 11.6129C24.5166 13.7508 26.2497 15.4839 28.3876 15.4839Z" fill="#A83229"/>
<path d="M25.8066 40H3.87109L14.8388 29.0322L25.8066 40Z" fill="#4A9BF6"/>
<path d="M40.0003 3.87085V36.1289C40.0003 37.1556 39.5925 38.1402 38.8665 38.8661C38.1406 39.592 37.156 39.9999 36.1293 39.9999H33.5487L18.71 25.1612L23.6196 20.2515C25.1055 22.1894 26.6972 24.0438 28.3874 25.8063C28.3874 25.8063 37.4196 16.5999 37.4196 11.6128C37.4204 10.1687 37.073 8.74565 36.4067 7.4644L40.0003 3.87085Z" fill="#D3D9F2"/>
<path d="M39.9997 3.87097L36.4061 7.46452C35.5505 5.80247 34.1972 4.44915 32.5352 3.59355L36.1287 0C37.1553 0 38.1399 0.407833 38.8659 1.13378C39.5918 1.85973 39.9997 2.84432 39.9997 3.87097Z" fill="#FFDF64"/>
<path d="M33.5485 40.0001H25.8066L14.8389 29.0323L18.7098 25.1614L33.5485 40.0001Z" fill="#F7F7FF"/>
<path d="M23.6194 20.2517L18.7097 25.1614L14.8387 29.0324L3.87097 40.0001C2.84432 40.0001 1.85973 39.5923 1.13378 38.8663C0.407833 38.1404 0 37.1558 0 36.1291L20.5742 15.5549C21.453 17.2047 22.4718 18.7761 23.6194 20.2517Z" fill="#FFDF64"/>
<path d="M36.129 0L32.5355 3.59355C31.1592 2.88008 29.6223 2.53311 28.0729 2.58607C26.5236 2.63903 25.014 3.09014 23.6896 3.89593C22.3652 4.70171 21.2706 5.83501 20.5114 7.18664C19.7522 8.53826 19.3539 10.0626 19.3548 11.6129C19.4551 13.0027 19.8722 14.3511 20.5742 15.5548L0 36.129V3.87097C0 2.84432 0.407833 1.85973 1.13378 1.13378C1.85973 0.407833 2.84432 0 3.87097 0H36.129Z" fill="#28BE77"/>
<path d="M36.4061 7.46449C37.0723 8.74574 37.4198 10.1688 37.419 11.6129C37.419 16.6 28.3868 25.8064 28.3868 25.8064C26.6965 24.0439 25.1049 22.1895 23.619 20.2516C22.4715 18.776 21.4527 17.2046 20.5738 15.5548C19.8719 14.3511 19.4548 13.0027 19.3545 11.6129C19.3562 9.59004 20.0368 7.62632 21.2874 6.03637C22.538 4.44643 24.2861 3.32231 26.2516 2.84413C28.2171 2.36595 30.2863 2.5614 32.1275 3.39916C33.9687 4.23692 35.4754 5.6685 36.4061 7.46449ZM32.2577 11.6129C32.2577 10.8473 32.0307 10.0989 31.6053 9.46228C31.18 8.82571 30.5754 8.32955 29.8681 8.03657C29.1608 7.74359 28.3825 7.66693 27.6316 7.81629C26.8807 7.96565 26.1909 8.33433 25.6496 8.87569C25.1082 9.41705 24.7395 10.1068 24.5902 10.8577C24.4408 11.6086 24.5175 12.3869 24.8104 13.0942C25.1034 13.8016 25.5996 14.4061 26.2362 14.8315C26.8727 15.2568 27.6211 15.4838 28.3868 15.4838C29.4134 15.4838 30.398 15.076 31.1239 14.3501C31.8499 13.6241 32.2577 12.6395 32.2577 11.6129Z" fill="#D73D3F"/>
<path d="M6.45174 37.4194L3.87109 40.0001H25.8066L23.2259 37.4194H6.45174Z" fill="#3B7CC4"/>
<path d="M36.1291 37.4193H30.9678L33.5484 40H36.1291C37.1557 40 38.1403 39.5921 38.8663 38.8662C39.5922 38.1402 40 37.1556 40 36.129V33.5483C40 34.575 39.5922 35.5596 38.8663 36.2855C38.1403 37.0115 37.1557 37.4193 36.1291 37.4193Z" fill="#AEB2D4"/>
<path d="M39.4307 4.44053C39.8031 5.04519 40.0003 5.74136 40.0003 6.45149V3.87085L39.4307 4.44053Z" fill="#B8BCE0"/>
<path d="M36.1295 2.58065C36.7931 2.58123 37.4454 2.75266 38.0236 3.07843C38.6018 3.40419 39.0864 3.87332 39.4308 4.44065L40.0004 3.87097C40.0004 2.84432 39.5926 1.85973 38.8667 1.13378C38.1407 0.407833 37.1561 0 36.1295 0L33.5488 2.58065H36.1295Z" fill="#FFB844"/>
<path d="M23.2256 37.4194L25.8062 40.0001H33.5482L30.9675 37.4194H23.2256Z" fill="#CACFE8"/>
<path d="M3.87097 37.4193C3.20732 37.4187 2.555 37.2473 1.9768 36.9215C1.39861 36.5958 0.914017 36.1267 0.569677 35.5593L0 36.129C0 37.1556 0.407833 38.1402 1.13378 38.8662C1.85973 39.5921 2.84432 40 3.87097 40L6.45161 37.4193H3.87097Z" fill="#FFB844"/>
<path d="M0 33.5483V36.129L0.569677 35.5593C0.197283 34.9546 6.69099e-05 34.2585 0 33.5483Z" fill="#1FA463"/>
<path d="M3.87097 2.58065H33.5484L36.129 0H3.87097C2.84432 0 1.85973 0.407833 1.13378 1.13378C0.407833 1.85973 0 2.84432 0 3.87097V6.45161C0 5.42497 0.407833 4.44037 1.13378 3.71443C1.85973 2.98848 2.84432 2.58065 3.87097 2.58065Z" fill="#1FA463"/>
<path d="M7.7424 13.5485C6.76041 13.5485 5.79445 13.2995 4.93485 12.8248C4.07524 12.35 3.35008 11.665 2.82719 10.8338C2.3043 10.0027 2.00075 9.05242 1.94493 8.07202C1.88912 7.09162 2.08287 6.11308 2.50805 5.22791C2.93323 4.34275 3.57596 3.57987 4.37613 3.01064C5.1763 2.4414 6.10777 2.0844 7.08342 1.97302C8.05907 1.86164 9.04703 1.99952 9.95491 2.37377C10.8628 2.74802 11.6609 3.3464 12.2747 4.11297L10.2585 5.72587C9.81772 5.17613 9.20903 4.78584 8.52549 4.61467C7.84194 4.44349 7.12115 4.50085 6.47328 4.77796C5.82541 5.05507 5.28609 5.5367 4.93776 6.14923C4.58943 6.76176 4.45125 7.47151 4.54433 8.16998C4.63742 8.86845 4.95665 9.51724 5.45323 10.0172C5.94982 10.5171 6.59645 10.8407 7.29428 10.9385C7.99211 11.0362 8.70277 10.9028 9.31762 10.5586C9.93248 10.2144 10.4177 9.67832 10.6992 9.03232H7.7424V6.45168H12.2585C12.6007 6.45168 12.9289 6.58762 13.1709 6.8296C13.4129 7.07159 13.5489 7.39979 13.5489 7.742C13.547 9.28139 12.9346 10.7572 11.8461 11.8457C10.7576 12.9342 9.28179 13.5466 7.7424 13.5485Z" fill="#F7F7FF"/>
<path d="M28.3876 10.3226C29.1873 10.3235 29.9671 10.5721 30.6199 11.0342C31.2726 11.4963 31.7662 12.1492 32.0327 12.9032C32.2415 12.319 32.3068 11.6932 32.2232 11.0785C32.1395 10.4637 31.9093 9.87811 31.552 9.37095C31.1947 8.86379 30.7207 8.44994 30.17 8.16427C29.6193 7.87861 29.008 7.72949 28.3876 7.72949C27.7672 7.72949 27.1559 7.87861 26.6052 8.16427C26.0544 8.44994 25.5805 8.86379 25.2231 9.37095C24.8658 9.87811 24.6356 10.4637 24.552 11.0785C24.4683 11.6932 24.5336 12.319 24.7424 12.9032C25.009 12.1492 25.5026 11.4963 26.1553 11.0342C26.808 10.5721 27.5878 10.3235 28.3876 10.3226Z" fill="#91323C"/>
<path d="M19.4835 12.7161C19.4002 13.2042 19.3571 13.6983 19.3545 14.1935C19.3775 14.929 19.5232 15.6556 19.7855 16.3432L20.5738 15.5548C20.0873 14.6606 19.7207 13.7061 19.4835 12.7161Z" fill="#1FA463"/>
<path d="M37.2855 12.7322C36.1816 17.8586 28.3868 25.8064 28.3868 25.8064C26.6966 24.0439 25.1049 22.1894 23.619 20.2515L22.5352 21.3354C22.8893 21.8431 23.25 22.3457 23.619 22.8322C25.1049 24.7701 26.6966 26.6245 28.3868 28.387C28.3868 28.387 37.419 19.1806 37.419 14.1935C37.4147 13.7035 37.37 13.2148 37.2855 12.7322Z" fill="#AEB2D4"/>
<path d="M20.5745 15.5549L19.7861 16.3433C20.0066 16.9585 20.2701 17.5574 20.5745 18.1356C21.1561 19.2448 21.8114 20.3139 22.5358 21.3356L23.6197 20.2517C22.4722 18.7761 21.4534 17.2047 20.5745 15.5549Z" fill="#FFB844"/>
</g>
</svg>
