<svg width="16" height="16" viewBox="0 0 16 16" fill="none" xmlns="http://www.w3.org/2000/svg">
<path d="M8.0231 3.18877C8.90218 3.18877 9.61748 2.47354 9.61748 1.59439C9.61748 0.715235 8.90218 0 8.0231 0C7.14401 0 6.42871 0.715235 6.42871 1.59445C6.42871 2.47354 7.14395 3.18877 8.0231 3.18877Z" fill="white"/>
<path d="M14.9144 6.84768C14.5932 6.84768 14.3329 7.10799 14.3329 7.42917C14.3329 7.99858 14.0291 8.4984 13.5751 8.77506C13.0653 6.1767 10.7708 4.21016 8.02534 4.21016C7.05994 4.21016 6.15029 4.45355 5.35429 4.88185L4.53504 4.06253C4.40562 3.93311 4.19952 3.89428 4.0303 3.96445C3.86135 4.03442 3.73936 4.19937 3.73936 4.38228V6.15247C3.41631 6.54149 3.13668 6.95454 2.91293 7.47143H1.48208C0.969007 7.47143 0.508789 7.86594 0.508789 8.37907V10.781C0.508789 11.2942 0.968943 11.7357 1.48208 11.7357H2.67892C2.91907 12.3818 3.28703 13.038 3.7393 13.5801V15.5235C3.7393 15.7733 3.96595 16 4.21573 16H5.43435C5.68413 16 5.87143 15.7733 5.87143 15.5235V15.1016C6.51754 15.3722 7.24789 15.5219 8.00428 15.5219C8.76016 15.5219 9.4896 15.3724 10.1357 15.1021V15.5235C10.1357 15.7733 10.3649 16 10.6147 16H11.8333C12.0831 16 12.2678 15.7733 12.2678 15.5235V13.5817C13.1078 12.6202 13.6367 11.373 13.6704 10.0072C14.7281 9.62805 15.4905 8.61574 15.4905 7.42923C15.4905 7.10806 15.2356 6.84768 14.9144 6.84768ZM5.04933 9.12771C4.58582 9.12771 4.20876 8.75064 4.20876 8.28713C4.20876 7.82362 4.58582 7.44655 5.04933 7.44655C5.51285 7.44655 5.88991 7.82362 5.88991 8.28713C5.88991 8.75071 5.51285 9.12771 5.04933 9.12771ZM9.83042 5.96039C9.76297 6.16378 9.57366 6.29261 9.37053 6.29261C9.32 6.29261 9.26857 6.28467 9.21798 6.26787C8.44919 6.01298 7.60124 6.01304 6.83251 6.26787C6.57853 6.35218 6.30426 6.2145 6.22007 5.96039C6.13582 5.70634 6.2735 5.43213 6.52755 5.34795C7.01051 5.18784 7.51434 5.10669 8.02534 5.10669C8.53622 5.10669 9.04011 5.18791 9.52307 5.34795C9.77699 5.43213 9.91467 5.70634 9.83042 5.96039Z" fill="white"/>
</svg>
