<svg width="40" height="40" viewBox="0 0 40 40" fill="none" xmlns="http://www.w3.org/2000/svg">
<g filter="url(#filter0_b_1_693)">
<rect width="40" height="40" fill="url(#paint0_linear_1_693)" fill-opacity="0.2"/>
<path fill-rule="evenodd" clip-rule="evenodd" d="M26.3125 16.1875C25.8594 16.3828 25.3672 16.5234 24.8594 16.5781C25.3828 16.2656 25.7813 15.7734 25.9688 15.1875C25.4844 15.4766 24.9375 15.6875 24.3672 15.7969C23.9063 15.3047 23.25 15 22.5234 15C21.125 15 20 16.1328 20 17.5234C20 17.7188 20.0234 17.9141 20.0625 18.1016C17.9688 17.9922 16.1016 16.9922 14.8594 15.4609C14.6406 15.8359 14.5156 16.2656 14.5156 16.7344C14.5156 17.6094 14.9609 18.3828 15.6406 18.8359C15.2266 18.8203 14.8359 18.7031 14.5 18.5156C14.5 18.5234 14.5 18.5391 14.5 18.5469C14.5 19.7734 15.3672 20.7891 16.5234 21.0234C16.3125 21.0781 16.0859 21.1094 15.8594 21.1094C15.6953 21.1094 15.5391 21.0938 15.3828 21.0703C15.7031 22.0703 16.6328 22.7969 17.7422 22.8203C16.875 23.5 15.7891 23.8984 14.6094 23.8984C14.3984 23.8984 14.2031 23.8906 14 23.8672C15.1172 24.5859 16.4453 25 17.875 25C22.5156 25 25.0547 21.1563 25.0547 17.8203C25.0547 17.7109 25.0547 17.6016 25.0469 17.4922C25.5391 17.1328 25.9688 16.6875 26.3125 16.1875Z" fill="white"/>
<rect x="1" y="1" width="38" height="38" stroke="url(#paint1_linear_1_693)" stroke-opacity="0.4" stroke-width="2"/>
</g>
<defs>
<filter id="filter0_b_1_693" x="-14" y="-14" width="68" height="68" filterUnits="userSpaceOnUse" color-interpolation-filters="sRGB">
<feFlood flood-opacity="0" result="BackgroundImageFix"/>
<feGaussianBlur in="BackgroundImage" stdDeviation="7"/>
<feComposite in2="SourceAlpha" operator="in" result="effect1_backgroundBlur_1_693"/>
<feBlend mode="normal" in="SourceGraphic" in2="effect1_backgroundBlur_1_693" result="shape"/>
</filter>
<linearGradient id="paint0_linear_1_693" x1="-0.583333" y1="20" x2="40" y2="20" gradientUnits="userSpaceOnUse">
<stop stop-color="white"/>
<stop offset="1" stop-color="white" stop-opacity="0.24"/>
</linearGradient>
<linearGradient id="paint1_linear_1_693" x1="0" y1="0" x2="40" y2="40" gradientUnits="userSpaceOnUse">
<stop stop-color="white" stop-opacity="0"/>
<stop offset="1" stop-color="white"/>
</linearGradient>
</defs>
</svg>
