<svg width="20" height="20" viewBox="0 0 20 20" fill="none" xmlns="http://www.w3.org/2000/svg">
<path d="M9.99996 0C4.48598 0 0 4.48598 0 9.99996C0 15.5139 4.48598 19.9999 9.99996 19.9999C15.5139 19.9999 19.9999 15.514 19.9999 9.99996C19.9999 4.48594 15.5139 0 9.99996 0ZM9.99996 18.7499C5.17523 18.7499 1.25 14.8247 1.25 9.99996C1.25 5.17523 5.17523 1.25 9.99996 1.25C14.8247 1.25 18.7499 5.1752 18.7499 9.99996C18.7499 14.8247 14.8247 18.7499 9.99996 18.7499ZM15.5468 9.99996C15.5468 10.3452 15.267 10.625 14.9218 10.625H10.625V14.9218C10.625 15.267 10.3451 15.5468 9.99996 15.5468C9.6548 15.5468 9.37496 15.267 9.37496 14.9218V10.625H5.07809C4.73293 10.625 4.45309 10.3452 4.45309 9.99996C4.45309 9.65477 4.73293 9.37496 5.07809 9.37496H9.37496V5.07809C9.37496 4.73289 9.6548 4.45309 9.99996 4.45309C10.3451 4.45309 10.625 4.73289 10.625 5.07809V9.37496H14.9218C15.267 9.37496 15.5468 9.6548 15.5468 9.99996Z" fill="#2D9CDB"/>
</svg>
