<svg width="24" height="24" viewBox="0 0 24 24" fill="none" xmlns="http://www.w3.org/2000/svg">
<path d="M5.78048 10.1068C6.45102 10.0173 7.12155 10.2461 7.59693 10.7185L8.79789 11.9122L9.93379 10.7882L8.29249 9.16187C8.03728 8.90823 8.03728 8.49543 8.29249 8.24179C8.54769 7.98815 8.96302 7.98815 9.21822 8.24179L10.8595 9.87306L11.9954 8.74908L10.7895 7.55049C10.3141 7.07802 10.0839 6.40661 10.174 5.74515C10.3741 4.23323 9.88876 2.6517 8.72283 1.48792C7.53188 0.304253 5.90058 -0.173193 4.35435 0.0555829C4.10915 0.0903967 4.00907 0.393774 4.18421 0.567843L5.73044 2.10462C6.46603 2.83571 6.46603 4.01938 5.73044 4.74549L4.77969 5.69044C4.0441 6.42153 2.85315 6.42153 2.12257 5.69044L0.571335 4.15366C0.396196 3.97959 0.0959567 4.07906 0.0559248 4.32276C-0.174259 5.85953 0.306124 7.48086 1.49707 8.66453C2.66801 9.82333 4.25927 10.3058 5.78048 10.1068Z" fill="#B67CF7"/>
<path d="M15.3987 12.1311L14.2628 13.2551L21.0082 19.9592C21.2634 20.2129 21.2634 20.6257 21.0082 20.8793C20.753 21.1329 20.3377 21.1329 20.0824 20.8793L13.3371 14.1752L12.2012 15.2992L19.1517 22.2072C20.0324 23.0825 21.4585 23.0775 22.3392 22.2022C23.2199 21.3269 23.2199 19.9095 22.3442 19.0342L15.3987 12.1311Z" fill="#B67CF7"/>
<path d="M18.0051 7.65504H21.0025L23.9999 1.70189L22.5037 0.214844L16.509 3.18893V6.168L8.36246 14.2398L6.8963 12.7876L0.991595 18.6562C-0.239386 19.8797 -0.239386 21.8591 0.991595 23.0825C2.22258 24.306 4.21416 24.306 5.44514 23.0825L11.3498 17.2139L9.85365 15.7269L18.0051 7.65504Z" fill="#B67CF7"/>
</svg>
