<svg width="16" height="16" viewBox="0 0 16 16" fill="none" xmlns="http://www.w3.org/2000/svg">
<path d="M15.1025 4.33687L3.97789 3.29943C3.91687 3.29225 3.85943 3.29225 3.802 3.29584L3.35687 1.142C3.3461 1.09892 3.33533 1.05585 3.31738 1.01995C3.24918 0.847641 3.10559 0.707641 2.91533 0.650206L0.793795 0.0255911C0.467129 -0.0713318 0.122514 0.115335 0.0255911 0.445591C-0.0713318 0.772257 0.115335 1.11687 0.445591 1.21379L2.21533 1.73431L4.34405 11.9938C4.38353 12.2953 4.64199 12.5286 4.95789 12.5286L14.1117 12.5251C14.4528 12.5251 14.7292 12.2487 14.7292 11.9076C14.7292 11.5666 14.4528 11.2902 14.1117 11.2902L5.46405 11.2938L5.16969 9.87583H14.2733C14.7507 9.87583 15.1635 9.55994 15.2497 9.12558L15.9856 5.41738C16.0825 4.8861 15.6804 4.39071 15.1025 4.33687Z" fill="white"/>
<path d="M6.71729 15.5584C7.39929 15.5584 7.95216 15.0055 7.95216 14.3235C7.95216 13.6415 7.39929 13.0886 6.71729 13.0886C6.03529 13.0886 5.48242 13.6415 5.48242 14.3235C5.48242 15.0055 6.03529 15.5584 6.71729 15.5584Z" fill="white"/>
<path d="M12.6187 15.5584C13.3007 15.5584 13.8535 15.0055 13.8535 14.3235C13.8535 13.6415 13.3007 13.0886 12.6187 13.0886C11.9367 13.0886 11.3838 13.6415 11.3838 14.3235C11.3838 15.0055 11.9367 15.5584 12.6187 15.5584Z" fill="white"/>
</svg>
