<svg width="20" height="20" viewBox="0 0 20 20" fill="none" xmlns="http://www.w3.org/2000/svg">
<path d="M17.4603 14.0734C14.7991 12.7847 14.375 10.7952 14.3561 10.6476C14.3332 10.4688 14.3073 10.3283 14.5045 10.1465C14.6946 9.97079 15.538 9.44858 15.7721 9.2852C16.1589 9.01465 16.3292 8.74455 16.2037 8.41251C16.1159 8.18281 15.902 8.09629 15.6768 8.09629C15.6057 8.0965 15.5349 8.10446 15.4656 8.12C15.0406 8.21224 14.6279 8.42525 14.389 8.48278C14.3603 8.49019 14.3308 8.49417 14.3012 8.49464C14.1739 8.49464 14.1256 8.43798 14.1379 8.2847C14.1677 7.82003 14.2309 6.91308 14.1576 6.06587C14.0571 4.90023 13.6812 4.32268 13.2356 3.81189C13.02 3.56418 12.0189 2.5 10.087 2.5C8.1551 2.5 7.15534 3.56418 6.94108 3.80882C6.49411 4.31961 6.1187 4.89715 6.01903 6.06279C5.94571 6.91001 6.01157 7.81652 6.03879 8.28163C6.04757 8.42744 6.00279 8.49157 5.87546 8.49157C5.84583 8.49106 5.81635 8.48708 5.78765 8.47971C5.54923 8.42217 5.13651 8.20916 4.71149 8.11693C4.64216 8.10138 4.57134 8.09343 4.5003 8.09321C4.27418 8.09321 4.06123 8.18105 3.97341 8.40944C3.84784 8.74147 4.01732 9.01158 4.40546 9.28213C4.63948 9.44551 5.48293 9.96728 5.67305 10.1434C5.86975 10.3252 5.84429 10.4658 5.82145 10.6445C5.80257 10.7943 5.37799 12.7839 2.71724 14.0703C2.56137 14.1458 2.29617 14.3057 2.76378 14.5639C3.4979 14.9698 3.98658 14.9263 4.36638 15.1709C4.68866 15.3787 4.4981 15.8266 4.73256 15.9883C5.02059 16.1872 5.87195 15.9742 6.97181 16.3374C7.89386 16.6414 8.45411 17.5 10.0892 17.5C11.7243 17.5 12.3008 16.6374 13.2066 16.3374C14.3043 15.9742 15.1574 16.1872 15.4458 15.9883C15.6799 15.8266 15.4897 15.3787 15.812 15.1709C16.1918 14.9263 16.6801 14.9698 17.4146 14.5639C17.8814 14.3088 17.6162 14.1489 17.4603 14.0734Z" fill="white"/>
</svg>
