<svg width="18" height="18" viewBox="0 0 18 18" fill="none" xmlns="http://www.w3.org/2000/svg">
<path fill-rule="evenodd" clip-rule="evenodd" d="M9.00171 0.666748C6.7389 0.666748 6.45564 0.676516 5.56679 0.715586C4.6812 0.754656 4.07236 0.897913 3.54491 1.10303C2.99468 1.31792 2.52909 1.60118 2.06676 2.06676C1.60118 2.52909 1.31792 2.99468 1.10303 3.54166C0.897913 4.07236 0.754656 4.67795 0.715586 5.56354C0.676516 6.45564 0.666748 6.7389 0.666748 9.00171C0.666748 11.2645 0.676516 11.5478 0.715586 12.4366C0.754656 13.3222 0.897913 13.9311 1.10303 14.4585C1.31792 15.0087 1.60118 15.4743 2.06676 15.9367C2.52909 16.399 2.99468 16.6855 3.54166 16.8971C4.07236 17.1023 4.67795 17.2455 5.56354 17.2846C6.45238 17.3237 6.73564 17.3334 8.99845 17.3334C11.2613 17.3334 11.5445 17.3237 12.4334 17.2846C13.319 17.2455 13.9278 17.1023 14.4552 16.8971C15.0022 16.6855 15.4678 16.399 15.9301 15.9367C16.3925 15.4743 16.679 15.0087 16.8906 14.4618C17.0957 13.9311 17.239 13.3255 17.2781 12.4399C17.3171 11.551 17.3269 11.2678 17.3269 9.00497C17.3269 6.74215 17.3171 6.4589 17.2781 5.57005C17.239 4.68446 17.0957 4.07562 16.8906 3.54817C16.6855 2.99468 16.4022 2.52909 15.9367 2.06676C15.4743 1.60443 15.0087 1.31792 14.4618 1.10629C13.9311 0.901169 13.3255 0.757912 12.4399 0.718842C11.5478 0.676516 11.2645 0.666748 9.00171 0.666748ZM9.00169 4.72028C6.63795 4.72028 4.72026 6.63797 4.72026 9.00171C4.72026 11.3655 6.63795 13.2831 9.00169 13.2831C11.3654 13.2831 13.2831 11.3655 13.2831 9.00171C13.2831 6.63797 11.3654 4.72028 9.00169 4.72028ZM9.00169 11.7789C7.46819 11.7789 6.22446 10.5352 6.22446 9.00171C6.22446 7.46821 7.46819 6.22448 9.00169 6.22448C10.5352 6.22448 11.7789 7.46821 11.7789 9.00171C11.7789 10.5352 10.5352 11.7789 9.00169 11.7789ZM13.4525 5.55053C14.0027 5.55053 14.452 5.10448 14.452 4.55098C14.452 4.00075 14.0027 3.55144 13.4525 3.55144C12.9022 3.55144 12.4529 3.99749 12.4529 4.55098C12.4529 5.10122 12.899 5.55053 13.4525 5.55053Z" fill="white"/>
</svg>
