<svg width="18" height="18" viewBox="0 0 18 18" fill="none" xmlns="http://www.w3.org/2000/svg">
<path fill-rule="evenodd" clip-rule="evenodd" d="M9.00162 0.666626C6.73881 0.666626 6.45555 0.676394 5.5667 0.715464C4.68111 0.754534 4.07227 0.897791 3.54482 1.10291C2.99459 1.31779 2.529 1.60105 2.06667 2.06664C1.60108 2.52897 1.31783 2.99456 1.10294 3.54154C0.897821 4.07224 0.754564 4.67783 0.715494 5.56342C0.676424 6.45552 0.666656 6.73878 0.666656 9.00159C0.666656 11.2644 0.676424 11.5477 0.715494 12.4365C0.754564 13.3221 0.897821 13.9309 1.10294 14.4584C1.31783 15.0086 1.60108 15.4742 2.06667 15.9365C2.529 16.3989 2.99459 16.6854 3.54157 16.897C4.07227 17.1021 4.67786 17.2454 5.56345 17.2845C6.45229 17.3235 6.73555 17.3333 8.99836 17.3333C11.2612 17.3333 11.5444 17.3235 12.4333 17.2845C13.3189 17.2454 13.9277 17.1021 14.4552 16.897C15.0021 16.6854 15.4677 16.3989 15.9301 15.9365C16.3924 15.4742 16.6789 15.0086 16.8905 14.4616C17.0956 13.9309 17.2389 13.3254 17.278 12.4398C17.317 11.5509 17.3268 11.2677 17.3268 9.00484C17.3268 6.74203 17.317 6.45877 17.278 5.56993C17.2389 4.68434 17.0956 4.0755 16.8905 3.54805C16.6854 2.99455 16.4022 2.52897 15.9366 2.06664C15.4742 1.60431 15.0087 1.31779 14.4617 1.10616C13.931 0.901047 13.3254 0.75779 12.4398 0.718719C11.5477 0.676394 11.2644 0.666626 9.00162 0.666626ZM9.0016 4.72016C6.63786 4.72016 4.72017 6.63785 4.72017 9.00159C4.72017 11.3653 6.63786 13.283 9.0016 13.283C11.3653 13.283 13.283 11.3653 13.283 9.00159C13.283 6.63785 11.3653 4.72016 9.0016 4.72016ZM9.0016 11.7788C7.4681 11.7788 6.22436 10.5351 6.22436 9.00159C6.22436 7.46809 7.4681 6.22436 9.0016 6.22436C10.5351 6.22436 11.7788 7.46809 11.7788 9.00159C11.7788 10.5351 10.5351 11.7788 9.0016 11.7788ZM13.4524 5.55041C14.0026 5.55041 14.4519 5.10436 14.4519 4.55086C14.4519 4.00062 14.0026 3.55132 13.4524 3.55132C12.9021 3.55132 12.4528 3.99737 12.4528 4.55086C12.4528 5.1011 12.8989 5.55041 13.4524 5.55041Z" fill="white"/>
</svg>
