<svg width="18" height="18" viewBox="0 0 18 18" fill="none" xmlns="http://www.w3.org/2000/svg">
<path fill-rule="evenodd" clip-rule="evenodd" d="M9.00098 0.666626C6.73817 0.666626 6.45491 0.676394 5.56606 0.715464C4.68047 0.754534 4.07163 0.897791 3.54418 1.10291C2.99394 1.31779 2.52836 1.60105 2.06603 2.06664C1.60044 2.52897 1.31718 2.99456 1.1023 3.54154C0.897181 4.07224 0.753923 4.67783 0.714853 5.56342C0.675783 6.45552 0.666016 6.73878 0.666016 9.00159C0.666016 11.2644 0.675783 11.5477 0.714853 12.4365C0.753923 13.3221 0.897181 13.9309 1.1023 14.4584C1.31718 15.0086 1.60044 15.4742 2.06603 15.9365C2.52836 16.3989 2.99394 16.6854 3.54093 16.897C4.07163 17.1021 4.67722 17.2454 5.56281 17.2845C6.45165 17.3235 6.73491 17.3333 8.99772 17.3333C11.2605 17.3333 11.5438 17.3235 12.4326 17.2845C13.3182 17.2454 13.9271 17.1021 14.4545 16.897C15.0015 16.6854 15.4671 16.3989 15.9294 15.9365C16.3917 15.4742 16.6783 15.0086 16.8899 14.4616C17.095 13.9309 17.2383 13.3254 17.2773 12.4398C17.3164 11.5509 17.3262 11.2677 17.3262 9.00484C17.3262 6.74203 17.3164 6.45877 17.2773 5.56993C17.2383 4.68434 17.095 4.0755 16.8899 3.54805C16.6848 2.99455 16.4015 2.52897 15.9359 2.06664C15.4736 1.60431 15.008 1.31779 14.461 1.10616C13.9303 0.901047 13.3247 0.75779 12.4391 0.718719C11.547 0.676394 11.2638 0.666626 9.00098 0.666626ZM9.00096 4.72016C6.63722 4.72016 4.71952 6.63785 4.71952 9.00159C4.71952 11.3653 6.63722 13.283 9.00096 13.283C11.3647 13.283 13.2824 11.3653 13.2824 9.00159C13.2824 6.63785 11.3647 4.72016 9.00096 4.72016ZM9.00096 11.7788C7.46746 11.7788 6.22372 10.5351 6.22372 9.00159C6.22372 7.46809 7.46746 6.22436 9.00096 6.22436C10.5345 6.22436 11.7782 7.46809 11.7782 9.00159C11.7782 10.5351 10.5345 11.7788 9.00096 11.7788ZM13.4517 5.55041C14.002 5.55041 14.4513 5.10436 14.4513 4.55086C14.4513 4.00062 14.002 3.55132 13.4517 3.55132C12.9015 3.55132 12.4522 3.99737 12.4522 4.55086C12.4522 5.1011 12.8982 5.55041 13.4517 5.55041Z" fill="white"/>
</svg>
