<svg width="18" height="18" viewBox="0 0 18 18" fill="none" xmlns="http://www.w3.org/2000/svg">
<path fill-rule="evenodd" clip-rule="evenodd" d="M9.00098 0.666672C6.73817 0.666672 6.45491 0.676439 5.56606 0.715509C4.68047 0.75458 4.07163 0.897837 3.54418 1.10295C2.99394 1.31784 2.52836 1.6011 2.06603 2.06668C1.60044 2.52901 1.31718 2.9946 1.1023 3.54158C0.897181 4.07229 0.753923 4.67787 0.714853 5.56346C0.675783 6.45556 0.666016 6.73882 0.666016 9.00163C0.666016 11.2644 0.675783 11.5477 0.714853 12.4365C0.753923 13.3221 0.897181 13.931 1.1023 14.4584C1.31718 15.0087 1.60044 15.4743 2.06603 15.9366C2.52836 16.3989 2.99394 16.6854 3.54093 16.8971C4.07163 17.1022 4.67722 17.2454 5.56281 17.2845C6.45165 17.3236 6.73491 17.3333 8.99772 17.3333C11.2605 17.3333 11.5438 17.3236 12.4326 17.2845C13.3182 17.2454 13.9271 17.1022 14.4545 16.8971C15.0015 16.6854 15.4671 16.3989 15.9294 15.9366C16.3917 15.4743 16.6783 15.0087 16.8899 14.4617C17.095 13.931 17.2383 13.3254 17.2773 12.4398C17.3164 11.551 17.3262 11.2677 17.3262 9.00489C17.3262 6.74208 17.3164 6.45882 17.2773 5.56997C17.2383 4.68438 17.095 4.07554 16.8899 3.54809C16.6848 2.9946 16.4015 2.52901 15.9359 2.06668C15.4736 1.60435 15.008 1.31784 14.461 1.10621C13.9303 0.901093 13.3247 0.757835 12.4391 0.718765C11.547 0.676439 11.2638 0.666672 9.00098 0.666672ZM9.00096 4.7202C6.63722 4.7202 4.71952 6.63789 4.71952 9.00164C4.71952 11.3654 6.63722 13.2831 9.00096 13.2831C11.3647 13.2831 13.2824 11.3654 13.2824 9.00164C13.2824 6.63789 11.3647 4.7202 9.00096 4.7202ZM9.00096 11.7789C7.46746 11.7789 6.22372 10.5351 6.22372 9.00164C6.22372 7.46813 7.46746 6.2244 9.00096 6.2244C10.5345 6.2244 11.7782 7.46813 11.7782 9.00164C11.7782 10.5351 10.5345 11.7789 9.00096 11.7789ZM13.4517 5.55045C14.002 5.55045 14.4513 5.1044 14.4513 4.55091C14.4513 4.00067 14.002 3.55136 13.4517 3.55136C12.9015 3.55136 12.4522 3.99741 12.4522 4.55091C12.4522 5.10115 12.8982 5.55045 13.4517 5.55045Z" fill="white"/>
</svg>
