<svg width="18" height="18" viewBox="0 0 18 18" fill="none" xmlns="http://www.w3.org/2000/svg">
<path fill-rule="evenodd" clip-rule="evenodd" d="M9.00147 0.666748C6.73865 0.666748 6.4554 0.676516 5.56655 0.715586C4.68096 0.754656 4.07212 0.897913 3.54467 1.10303C2.99443 1.31792 2.52885 1.60118 2.06652 2.06676C1.60093 2.52909 1.31767 2.99468 1.10279 3.54166C0.897669 4.07236 0.754412 4.67795 0.715342 5.56354C0.676271 6.45564 0.666504 6.7389 0.666504 9.00171C0.666504 11.2645 0.676271 11.5478 0.715342 12.4366C0.754412 13.3222 0.897669 13.9311 1.10279 14.4585C1.31767 15.0087 1.60093 15.4743 2.06652 15.9367C2.52885 16.399 2.99443 16.6855 3.54141 16.8971C4.07212 17.1023 4.6777 17.2455 5.56329 17.2846C6.45214 17.3237 6.7354 17.3334 8.99821 17.3334C11.261 17.3334 11.5443 17.3237 12.4331 17.2846C13.3187 17.2455 13.9276 17.1023 14.455 16.8971C15.002 16.6855 15.4676 16.399 15.9299 15.9367C16.3922 15.4743 16.6787 15.0087 16.8904 14.4618C17.0955 13.9311 17.2388 13.3255 17.2778 12.4399C17.3169 11.551 17.3267 11.2678 17.3267 9.00497C17.3267 6.74215 17.3169 6.4589 17.2778 5.57005C17.2388 4.68446 17.0955 4.07562 16.8904 3.54817C16.6853 2.99468 16.402 2.52909 15.9364 2.06676C15.4741 1.60443 15.0085 1.31792 14.4615 1.10629C13.9308 0.901169 13.3252 0.757912 12.4396 0.718842C11.5475 0.676516 11.2643 0.666748 9.00147 0.666748ZM9.00145 4.72028C6.6377 4.72028 4.72001 6.63797 4.72001 9.00171C4.72001 11.3655 6.6377 13.2831 9.00145 13.2831C11.3652 13.2831 13.2829 11.3655 13.2829 9.00171C13.2829 6.63797 11.3652 4.72028 9.00145 4.72028ZM9.00145 11.7789C7.46795 11.7789 6.22421 10.5352 6.22421 9.00171C6.22421 7.46821 7.46795 6.22448 9.00145 6.22448C10.535 6.22448 11.7787 7.46821 11.7787 9.00171C11.7787 10.5352 10.535 11.7789 9.00145 11.7789ZM13.4522 5.55053C14.0025 5.55053 14.4518 5.10448 14.4518 4.55098C14.4518 4.00075 14.0025 3.55144 13.4522 3.55144C12.902 3.55144 12.4527 3.99749 12.4527 4.55098C12.4527 5.10122 12.8987 5.55053 13.4522 5.55053Z" fill="white"/>
</svg>
