<svg width="18" height="18" viewBox="0 0 18 18" fill="none" xmlns="http://www.w3.org/2000/svg">
<path fill-rule="evenodd" clip-rule="evenodd" d="M9.00147 0.666626C6.73865 0.666626 6.4554 0.676394 5.56655 0.715464C4.68096 0.754534 4.07212 0.897791 3.54467 1.10291C2.99443 1.31779 2.52885 1.60105 2.06652 2.06664C1.60093 2.52897 1.31767 2.99456 1.10279 3.54154C0.897669 4.07224 0.754412 4.67783 0.715342 5.56342C0.676271 6.45552 0.666504 6.73878 0.666504 9.00159C0.666504 11.2644 0.676271 11.5477 0.715342 12.4365C0.754412 13.3221 0.897669 13.9309 1.10279 14.4584C1.31767 15.0086 1.60093 15.4742 2.06652 15.9365C2.52885 16.3989 2.99443 16.6854 3.54141 16.897C4.07212 17.1021 4.6777 17.2454 5.56329 17.2845C6.45214 17.3235 6.7354 17.3333 8.99821 17.3333C11.261 17.3333 11.5443 17.3235 12.4331 17.2845C13.3187 17.2454 13.9276 17.1021 14.455 16.897C15.002 16.6854 15.4676 16.3989 15.9299 15.9365C16.3922 15.4742 16.6787 15.0086 16.8904 14.4616C17.0955 13.9309 17.2388 13.3254 17.2778 12.4398C17.3169 11.5509 17.3267 11.2677 17.3267 9.00484C17.3267 6.74203 17.3169 6.45877 17.2778 5.56993C17.2388 4.68434 17.0955 4.0755 16.8904 3.54805C16.6853 2.99455 16.402 2.52897 15.9364 2.06664C15.4741 1.60431 15.0085 1.31779 14.4615 1.10616C13.9308 0.901047 13.3252 0.75779 12.4396 0.718719C11.5475 0.676394 11.2643 0.666626 9.00147 0.666626ZM9.00145 4.72016C6.6377 4.72016 4.72001 6.63785 4.72001 9.00159C4.72001 11.3653 6.6377 13.283 9.00145 13.283C11.3652 13.283 13.2829 11.3653 13.2829 9.00159C13.2829 6.63785 11.3652 4.72016 9.00145 4.72016ZM9.00145 11.7788C7.46795 11.7788 6.22421 10.5351 6.22421 9.00159C6.22421 7.46809 7.46795 6.22436 9.00145 6.22436C10.535 6.22436 11.7787 7.46809 11.7787 9.00159C11.7787 10.5351 10.535 11.7788 9.00145 11.7788ZM13.4522 5.55041C14.0025 5.55041 14.4518 5.10436 14.4518 4.55086C14.4518 4.00062 14.0025 3.55132 13.4522 3.55132C12.902 3.55132 12.4527 3.99737 12.4527 4.55086C12.4527 5.1011 12.8987 5.55041 13.4522 5.55041Z" fill="white"/>
</svg>
