<svg width="18" height="18" viewBox="0 0 18 18" fill="none" xmlns="http://www.w3.org/2000/svg">
<path fill-rule="evenodd" clip-rule="evenodd" d="M9.00196 0.666672C6.73914 0.666672 6.45588 0.676439 5.56704 0.715509C4.68145 0.75458 4.07261 0.897837 3.54516 1.10295C2.99492 1.31784 2.52934 1.6011 2.06701 2.06668C1.60142 2.52901 1.31816 2.9946 1.10328 3.54158C0.898157 4.07229 0.7549 4.67787 0.71583 5.56346C0.67676 6.45556 0.666992 6.73882 0.666992 9.00163C0.666992 11.2644 0.67676 11.5477 0.71583 12.4365C0.7549 13.3221 0.898157 13.931 1.10328 14.4584C1.31816 15.0087 1.60142 15.4743 2.06701 15.9366C2.52934 16.3989 2.99492 16.6854 3.5419 16.8971C4.07261 17.1022 4.67819 17.2454 5.56378 17.2845C6.45263 17.3236 6.73589 17.3333 8.9987 17.3333C11.2615 17.3333 11.5448 17.3236 12.4336 17.2845C13.3192 17.2454 13.928 17.1022 14.4555 16.8971C15.0025 16.6854 15.4681 16.3989 15.9304 15.9366C16.3927 15.4743 16.6792 15.0087 16.8909 14.4617C17.096 13.931 17.2392 13.3254 17.2783 12.4398C17.3174 11.551 17.3271 11.2677 17.3271 9.00489C17.3271 6.74208 17.3174 6.45882 17.2783 5.56997C17.2392 4.68438 17.096 4.07554 16.8909 3.54809C16.6857 2.9946 16.4025 2.52901 15.9369 2.06668C15.4746 1.60435 15.009 1.31784 14.462 1.10621C13.9313 0.901093 13.3257 0.757835 12.4401 0.718765C11.548 0.676439 11.2648 0.666672 9.00196 0.666672ZM9.00194 4.7202C6.63819 4.7202 4.7205 6.63789 4.7205 9.00164C4.7205 11.3654 6.63819 13.2831 9.00194 13.2831C11.3657 13.2831 13.2834 11.3654 13.2834 9.00164C13.2834 6.63789 11.3657 4.7202 9.00194 4.7202ZM9.00194 11.7789C7.46843 11.7789 6.2247 10.5351 6.2247 9.00164C6.2247 7.46813 7.46843 6.2244 9.00194 6.2244C10.5354 6.2244 11.7792 7.46813 11.7792 9.00164C11.7792 10.5351 10.5354 11.7789 9.00194 11.7789ZM13.4527 5.55045C14.003 5.55045 14.4523 5.1044 14.4523 4.55091C14.4523 4.00067 14.003 3.55136 13.4527 3.55136C12.9025 3.55136 12.4532 3.99741 12.4532 4.55091C12.4532 5.10115 12.8992 5.55045 13.4527 5.55045Z" fill="white"/>
</svg>
