<svg width="18" height="18" viewBox="0 0 18 18" fill="none" xmlns="http://www.w3.org/2000/svg">
<path fill-rule="evenodd" clip-rule="evenodd" d="M9.00196 0.666748C6.73914 0.666748 6.45588 0.676516 5.56704 0.715586C4.68145 0.754656 4.07261 0.897913 3.54516 1.10303C2.99492 1.31792 2.52934 1.60118 2.06701 2.06676C1.60142 2.52909 1.31816 2.99468 1.10328 3.54166C0.898157 4.07236 0.7549 4.67795 0.71583 5.56354C0.67676 6.45564 0.666992 6.7389 0.666992 9.00171C0.666992 11.2645 0.67676 11.5478 0.71583 12.4366C0.7549 13.3222 0.898157 13.9311 1.10328 14.4585C1.31816 15.0087 1.60142 15.4743 2.06701 15.9367C2.52934 16.399 2.99492 16.6855 3.5419 16.8971C4.07261 17.1023 4.67819 17.2455 5.56378 17.2846C6.45263 17.3237 6.73589 17.3334 8.9987 17.3334C11.2615 17.3334 11.5448 17.3237 12.4336 17.2846C13.3192 17.2455 13.928 17.1023 14.4555 16.8971C15.0025 16.6855 15.4681 16.399 15.9304 15.9367C16.3927 15.4743 16.6792 15.0087 16.8909 14.4618C17.096 13.9311 17.2392 13.3255 17.2783 12.4399C17.3174 11.551 17.3271 11.2678 17.3271 9.00497C17.3271 6.74215 17.3174 6.4589 17.2783 5.57005C17.2392 4.68446 17.096 4.07562 16.8909 3.54817C16.6857 2.99468 16.4025 2.52909 15.9369 2.06676C15.4746 1.60443 15.009 1.31792 14.462 1.10629C13.9313 0.901169 13.3257 0.757912 12.4401 0.718842C11.548 0.676516 11.2648 0.666748 9.00196 0.666748ZM9.00194 4.72028C6.63819 4.72028 4.7205 6.63797 4.7205 9.00171C4.7205 11.3655 6.63819 13.2831 9.00194 13.2831C11.3657 13.2831 13.2834 11.3655 13.2834 9.00171C13.2834 6.63797 11.3657 4.72028 9.00194 4.72028ZM9.00194 11.7789C7.46843 11.7789 6.2247 10.5352 6.2247 9.00171C6.2247 7.46821 7.46843 6.22448 9.00194 6.22448C10.5354 6.22448 11.7792 7.46821 11.7792 9.00171C11.7792 10.5352 10.5354 11.7789 9.00194 11.7789ZM13.4527 5.55053C14.003 5.55053 14.4523 5.10448 14.4523 4.55098C14.4523 4.00075 14.003 3.55144 13.4527 3.55144C12.9025 3.55144 12.4532 3.99749 12.4532 4.55098C12.4532 5.10122 12.8992 5.55053 13.4527 5.55053Z" fill="white"/>
</svg>
