<svg width="18" height="18" viewBox="0 0 18 18" fill="none" xmlns="http://www.w3.org/2000/svg">
<path fill-rule="evenodd" clip-rule="evenodd" d="M9.00196 0.666626C6.73914 0.666626 6.45588 0.676394 5.56704 0.715464C4.68145 0.754534 4.07261 0.897791 3.54516 1.10291C2.99492 1.31779 2.52934 1.60105 2.06701 2.06664C1.60142 2.52897 1.31816 2.99456 1.10328 3.54154C0.898157 4.07224 0.7549 4.67783 0.71583 5.56342C0.67676 6.45552 0.666992 6.73878 0.666992 9.00159C0.666992 11.2644 0.67676 11.5477 0.71583 12.4365C0.7549 13.3221 0.898157 13.9309 1.10328 14.4584C1.31816 15.0086 1.60142 15.4742 2.06701 15.9365C2.52934 16.3989 2.99492 16.6854 3.5419 16.897C4.07261 17.1021 4.67819 17.2454 5.56378 17.2845C6.45263 17.3235 6.73589 17.3333 8.9987 17.3333C11.2615 17.3333 11.5448 17.3235 12.4336 17.2845C13.3192 17.2454 13.928 17.1021 14.4555 16.897C15.0025 16.6854 15.4681 16.3989 15.9304 15.9365C16.3927 15.4742 16.6792 15.0086 16.8909 14.4616C17.096 13.9309 17.2392 13.3254 17.2783 12.4398C17.3174 11.5509 17.3271 11.2677 17.3271 9.00484C17.3271 6.74203 17.3174 6.45877 17.2783 5.56993C17.2392 4.68434 17.096 4.0755 16.8909 3.54805C16.6857 2.99455 16.4025 2.52897 15.9369 2.06664C15.4746 1.60431 15.009 1.31779 14.462 1.10616C13.9313 0.901047 13.3257 0.75779 12.4401 0.718719C11.548 0.676394 11.2648 0.666626 9.00196 0.666626ZM9.00194 4.72016C6.63819 4.72016 4.7205 6.63785 4.7205 9.00159C4.7205 11.3653 6.63819 13.283 9.00194 13.283C11.3657 13.283 13.2834 11.3653 13.2834 9.00159C13.2834 6.63785 11.3657 4.72016 9.00194 4.72016ZM9.00194 11.7788C7.46843 11.7788 6.2247 10.5351 6.2247 9.00159C6.2247 7.46809 7.46843 6.22436 9.00194 6.22436C10.5354 6.22436 11.7792 7.46809 11.7792 9.00159C11.7792 10.5351 10.5354 11.7788 9.00194 11.7788ZM13.4527 5.55041C14.003 5.55041 14.4523 5.10436 14.4523 4.55086C14.4523 4.00062 14.003 3.55132 13.4527 3.55132C12.9025 3.55132 12.4532 3.99737 12.4532 4.55086C12.4532 5.1011 12.8992 5.55041 13.4527 5.55041Z" fill="white"/>
</svg>
