<svg width="18" height="18" viewBox="0 0 18 18" fill="none" xmlns="http://www.w3.org/2000/svg">
<path fill-rule="evenodd" clip-rule="evenodd" d="M9.00163 0.666626C6.73882 0.666626 6.45556 0.676394 5.56671 0.715464C4.68112 0.754534 4.07228 0.897791 3.54483 1.10291C2.9946 1.31779 2.52901 1.60105 2.06668 2.06664C1.6011 2.52897 1.31784 2.99456 1.10295 3.54154C0.897833 4.07224 0.754576 4.67783 0.715506 5.56342C0.676435 6.45552 0.666668 6.73878 0.666668 9.00159C0.666668 11.2644 0.676435 11.5477 0.715506 12.4365C0.754576 13.3221 0.897833 13.9309 1.10295 14.4584C1.31784 15.0086 1.6011 15.4742 2.06668 15.9365C2.52901 16.3989 2.9946 16.6854 3.54158 16.897C4.07228 17.1021 4.67787 17.2454 5.56346 17.2845C6.4523 17.3235 6.73556 17.3333 8.99837 17.3333C11.2612 17.3333 11.5444 17.3235 12.4333 17.2845C13.3189 17.2454 13.9277 17.1021 14.4552 16.897C15.0022 16.6854 15.4677 16.3989 15.9301 15.9365C16.3924 15.4742 16.6789 15.0086 16.8905 14.4616C17.0957 13.9309 17.2389 13.3254 17.278 12.4398C17.3171 11.5509 17.3268 11.2677 17.3268 9.00484C17.3268 6.74203 17.3171 6.45877 17.278 5.56993C17.2389 4.68434 17.0957 4.0755 16.8905 3.54805C16.6854 2.99455 16.4022 2.52897 15.9366 2.06664C15.4742 1.60431 15.0087 1.31779 14.4617 1.10616C13.931 0.901047 13.3254 0.75779 12.4398 0.718719C11.5477 0.676394 11.2644 0.666626 9.00163 0.666626ZM9.00161 4.72016C6.63787 4.72016 4.72018 6.63785 4.72018 9.00159C4.72018 11.3653 6.63787 13.283 9.00161 13.283C11.3654 13.283 13.283 11.3653 13.283 9.00159C13.283 6.63785 11.3654 4.72016 9.00161 4.72016ZM9.00161 11.7788C7.46811 11.7788 6.22438 10.5351 6.22438 9.00159C6.22438 7.46809 7.46811 6.22436 9.00161 6.22436C10.5351 6.22436 11.7788 7.46809 11.7788 9.00159C11.7788 10.5351 10.5351 11.7788 9.00161 11.7788ZM13.4524 5.55041C14.0026 5.55041 14.4519 5.10436 14.4519 4.55086C14.4519 4.00062 14.0026 3.55132 13.4524 3.55132C12.9022 3.55132 12.4528 3.99737 12.4528 4.55086C12.4528 5.1011 12.8989 5.55041 13.4524 5.55041Z" fill="white"/>
</svg>
