<svg width="18" height="18" viewBox="0 0 18 18" fill="none" xmlns="http://www.w3.org/2000/svg">
<path fill-rule="evenodd" clip-rule="evenodd" d="M9.00196 0.666687C6.73914 0.666687 6.45588 0.676455 5.56704 0.715525C4.68145 0.754595 4.07261 0.897852 3.54516 1.10297C2.99492 1.31786 2.52934 1.60111 2.06701 2.0667C1.60142 2.52903 1.31816 2.99462 1.10328 3.5416C0.898157 4.0723 0.7549 4.67789 0.71583 5.56348C0.67676 6.45558 0.666992 6.73884 0.666992 9.00165C0.666992 11.2645 0.67676 11.5477 0.71583 12.4366C0.7549 13.3222 0.898157 13.931 1.10328 14.4584C1.31816 15.0087 1.60142 15.4743 2.06701 15.9366C2.52934 16.3989 2.99492 16.6854 3.5419 16.8971C4.07261 17.1022 4.67819 17.2454 5.56378 17.2845C6.45263 17.3236 6.73589 17.3334 8.9987 17.3334C11.2615 17.3334 11.5448 17.3236 12.4336 17.2845C13.3192 17.2454 13.928 17.1022 14.4555 16.8971C15.0025 16.6854 15.4681 16.3989 15.9304 15.9366C16.3927 15.4743 16.6792 15.0087 16.8909 14.4617C17.096 13.931 17.2392 13.3254 17.2783 12.4398C17.3174 11.551 17.3271 11.2677 17.3271 9.00491C17.3271 6.74209 17.3174 6.45883 17.2783 5.56999C17.2392 4.6844 17.096 4.07556 16.8909 3.54811C16.6857 2.99462 16.4025 2.52903 15.9369 2.0667C15.4746 1.60437 15.009 1.31786 14.462 1.10623C13.9313 0.901108 13.3257 0.757851 12.4401 0.718781C11.548 0.676455 11.2648 0.666687 9.00196 0.666687ZM9.00194 4.72022C6.63819 4.72022 4.7205 6.63791 4.7205 9.00165C4.7205 11.3654 6.63819 13.2831 9.00194 13.2831C11.3657 13.2831 13.2834 11.3654 13.2834 9.00165C13.2834 6.63791 11.3657 4.72022 9.00194 4.72022ZM9.00194 11.7789C7.46843 11.7789 6.2247 10.5352 6.2247 9.00165C6.2247 7.46815 7.46843 6.22442 9.00194 6.22442C10.5354 6.22442 11.7792 7.46815 11.7792 9.00165C11.7792 10.5352 10.5354 11.7789 9.00194 11.7789ZM13.4527 5.55047C14.003 5.55047 14.4523 5.10442 14.4523 4.55092C14.4523 4.00068 14.003 3.55138 13.4527 3.55138C12.9025 3.55138 12.4532 3.99743 12.4532 4.55092C12.4532 5.10116 12.8992 5.55047 13.4527 5.55047Z" fill="white"/>
</svg>
