<svg width="18" height="18" viewBox="0 0 18 18" fill="none" xmlns="http://www.w3.org/2000/svg">
<path fill-rule="evenodd" clip-rule="evenodd" d="M9.00171 0.666626C6.7389 0.666626 6.45564 0.676394 5.56679 0.715464C4.6812 0.754534 4.07236 0.897791 3.54491 1.10291C2.99468 1.31779 2.52909 1.60105 2.06676 2.06664C1.60118 2.52897 1.31792 2.99456 1.10303 3.54154C0.897913 4.07224 0.754656 4.67783 0.715586 5.56342C0.676516 6.45552 0.666748 6.73878 0.666748 9.00159C0.666748 11.2644 0.676516 11.5477 0.715586 12.4365C0.754656 13.3221 0.897913 13.9309 1.10303 14.4584C1.31792 15.0086 1.60118 15.4742 2.06676 15.9365C2.52909 16.3989 2.99468 16.6854 3.54166 16.897C4.07236 17.1021 4.67795 17.2454 5.56354 17.2845C6.45238 17.3235 6.73564 17.3333 8.99845 17.3333C11.2613 17.3333 11.5445 17.3235 12.4334 17.2845C13.319 17.2454 13.9278 17.1021 14.4552 16.897C15.0022 16.6854 15.4678 16.3989 15.9301 15.9365C16.3925 15.4742 16.679 15.0086 16.8906 14.4616C17.0957 13.9309 17.239 13.3254 17.2781 12.4398C17.3171 11.5509 17.3269 11.2677 17.3269 9.00484C17.3269 6.74203 17.3171 6.45877 17.2781 5.56993C17.239 4.68434 17.0957 4.0755 16.8906 3.54805C16.6855 2.99455 16.4022 2.52897 15.9367 2.06664C15.4743 1.60431 15.0087 1.31779 14.4618 1.10616C13.9311 0.901047 13.3255 0.75779 12.4399 0.718719C11.5478 0.676394 11.2645 0.666626 9.00171 0.666626ZM9.00169 4.72016C6.63795 4.72016 4.72026 6.63785 4.72026 9.00159C4.72026 11.3653 6.63795 13.283 9.00169 13.283C11.3654 13.283 13.2831 11.3653 13.2831 9.00159C13.2831 6.63785 11.3654 4.72016 9.00169 4.72016ZM9.00169 11.7788C7.46819 11.7788 6.22446 10.5351 6.22446 9.00159C6.22446 7.46809 7.46819 6.22436 9.00169 6.22436C10.5352 6.22436 11.7789 7.46809 11.7789 9.00159C11.7789 10.5351 10.5352 11.7788 9.00169 11.7788ZM13.4525 5.55041C14.0027 5.55041 14.452 5.10436 14.452 4.55086C14.452 4.00062 14.0027 3.55132 13.4525 3.55132C12.9022 3.55132 12.4529 3.99737 12.4529 4.55086C12.4529 5.1011 12.899 5.55041 13.4525 5.55041Z" fill="white"/>
</svg>
