<svg width="20" height="20" viewBox="0 0 20 20" fill="none" xmlns="http://www.w3.org/2000/svg">
<path fill-rule="evenodd" clip-rule="evenodd" d="M3.18904 9.07329C7.50786 7.19165 10.3878 5.95115 11.8287 5.35181C15.943 3.64056 16.7979 3.34329 17.3551 3.33348C17.4776 3.33132 17.7517 3.36169 17.9292 3.50572C18.079 3.62734 18.1203 3.79162 18.14 3.90692C18.1597 4.02223 18.1843 4.2849 18.1648 4.49013C17.9418 6.83271 16.9771 12.5175 16.4863 15.1412C16.2786 16.2514 15.8697 16.6237 15.4739 16.6601C14.6135 16.7393 13.9602 16.0915 13.127 15.5453C11.8231 14.6906 11.0865 14.1585 9.8208 13.3245C8.35811 12.3606 9.30631 11.8308 10.1399 10.965C10.358 10.7385 14.1487 7.2906 14.222 6.97783C14.2312 6.93871 14.2397 6.7929 14.1531 6.71591C14.0665 6.63891 13.9386 6.66524 13.8464 6.68618C13.7156 6.71586 11.6326 8.09264 7.59737 10.8165C7.00612 11.2225 6.47059 11.4203 5.99076 11.41C5.4618 11.3985 4.44428 11.1109 3.68786 10.865C2.76008 10.5634 2.0227 10.404 2.08691 9.89178C2.12035 9.62501 2.48773 9.35217 3.18904 9.07329Z" fill="white"/>
</svg>
