<svg width="20" height="20" viewBox="0 0 20 20" fill="none" xmlns="http://www.w3.org/2000/svg">
<path fill-rule="evenodd" clip-rule="evenodd" d="M3.18904 9.07316C7.50786 7.19152 10.3878 5.95103 11.8287 5.35169C15.943 3.64043 16.7979 3.34317 17.3551 3.33336C17.4776 3.3312 17.7517 3.36157 17.9292 3.5056C18.079 3.62721 18.1203 3.7915 18.14 3.9068C18.1597 4.02211 18.1843 4.28477 18.1648 4.49001C17.9418 6.83259 16.9771 12.5174 16.4863 15.1411C16.2786 16.2513 15.8697 16.6235 15.4739 16.66C14.6135 16.7391 13.9602 16.0914 13.127 15.5452C11.8231 14.6905 11.0865 14.1584 9.8208 13.3244C8.35811 12.3605 9.30631 11.8307 10.1399 10.9649C10.358 10.7383 14.1487 7.29048 14.222 6.97771C14.2312 6.93859 14.2397 6.79278 14.1531 6.71578C14.0665 6.63879 13.9386 6.66512 13.8464 6.68606C13.7156 6.71574 11.6326 8.09252 7.59737 10.8164C7.00612 11.2224 6.47059 11.4202 5.99076 11.4098C5.4618 11.3984 4.44428 11.1108 3.68786 10.8649C2.76008 10.5633 2.0227 10.4038 2.08691 9.89166C2.12035 9.62488 2.48773 9.35205 3.18904 9.07316Z" fill="white"/>
</svg>
