<svg width="20" height="20" viewBox="0 0 20 20" fill="none" xmlns="http://www.w3.org/2000/svg">
<path fill-rule="evenodd" clip-rule="evenodd" d="M3.18904 9.07324C7.50786 7.1916 10.3878 5.95111 11.8287 5.35176C15.943 3.64051 16.7979 3.34325 17.3551 3.33343C17.4776 3.33127 17.7517 3.36165 17.9292 3.50568C18.079 3.62729 18.1203 3.79157 18.14 3.90688C18.1597 4.02218 18.1843 4.28485 18.1648 4.49009C17.9418 6.83266 16.9771 12.5175 16.4863 15.1412C16.2786 16.2514 15.8697 16.6236 15.4739 16.6601C14.6135 16.7392 13.9602 16.0915 13.127 15.5453C11.8231 14.6906 11.0865 14.1585 9.8208 13.3244C8.35811 12.3606 9.30631 11.8308 10.1399 10.965C10.358 10.7384 14.1487 7.29056 14.222 6.97778C14.2312 6.93867 14.2397 6.79285 14.1531 6.71586C14.0665 6.63887 13.9386 6.66519 13.8464 6.68613C13.7156 6.71582 11.6326 8.0926 7.59737 10.8165C7.00612 11.2225 6.47059 11.4203 5.99076 11.4099C5.4618 11.3985 4.44428 11.1108 3.68786 10.865C2.76008 10.5634 2.0227 10.4039 2.08691 9.89174C2.12035 9.62496 2.48773 9.35213 3.18904 9.07324Z" fill="white"/>
</svg>
