<svg width="20" height="20" viewBox="0 0 20 20" fill="none" xmlns="http://www.w3.org/2000/svg">
<path fill-rule="evenodd" clip-rule="evenodd" d="M3.19001 9.07324C7.50884 7.1916 10.3887 5.95111 11.8297 5.35176C15.9439 3.64051 16.7988 3.34325 17.3561 3.33343C17.4786 3.33127 17.7526 3.36165 17.9301 3.50568C18.08 3.62729 18.1212 3.79157 18.141 3.90688C18.1607 4.02218 18.1853 4.28485 18.1657 4.49009C17.9428 6.83266 16.9781 12.5175 16.4873 15.1412C16.2796 16.2514 15.8707 16.6236 15.4748 16.6601C14.6145 16.7392 13.9612 16.0915 13.128 15.5453C11.8241 14.6906 11.0874 14.1585 9.82178 13.3244C8.35909 12.3606 9.30729 11.8308 10.1409 10.965C10.359 10.7384 14.1496 7.29056 14.223 6.97778C14.2322 6.93867 14.2407 6.79285 14.1541 6.71586C14.0674 6.63887 13.9396 6.66519 13.8473 6.68613C13.7166 6.71582 11.6336 8.0926 7.59835 10.8165C7.0071 11.2225 6.47156 11.4203 5.99174 11.4099C5.46277 11.3985 4.44526 11.1108 3.68883 10.865C2.76105 10.5634 2.02367 10.4039 2.08788 9.89174C2.12133 9.62496 2.4887 9.35213 3.19001 9.07324Z" fill="white"/>
</svg>
