<svg width="20" height="20" viewBox="0 0 20 20" fill="none" xmlns="http://www.w3.org/2000/svg">
<path fill-rule="evenodd" clip-rule="evenodd" d="M3.18904 9.07323C7.50786 7.19159 10.3878 5.95109 11.8287 5.35175C15.943 3.6405 16.7979 3.34323 17.3551 3.33342C17.4776 3.33126 17.7517 3.36163 17.9292 3.50566C18.079 3.62727 18.1203 3.79156 18.14 3.90686C18.1597 4.02217 18.1843 4.28483 18.1648 4.49007C17.9418 6.83265 16.9771 12.5175 16.4863 15.1412C16.2786 16.2514 15.8697 16.6236 15.4739 16.66C14.6135 16.7392 13.9602 16.0915 13.127 15.5453C11.8231 14.6905 11.0865 14.1585 9.8208 13.3244C8.35811 12.3605 9.30631 11.8308 10.1399 10.965C10.358 10.7384 14.1487 7.29054 14.222 6.97777C14.2312 6.93865 14.2397 6.79284 14.1531 6.71584C14.0665 6.63885 13.9386 6.66518 13.8464 6.68612C13.7156 6.7158 11.6326 8.09258 7.59737 10.8165C7.00612 11.2225 6.47059 11.4203 5.99076 11.4099C5.4618 11.3985 4.44428 11.1108 3.68786 10.8649C2.76008 10.5634 2.0227 10.4039 2.08691 9.89172C2.12035 9.62495 2.48773 9.35211 3.18904 9.07323Z" fill="white"/>
</svg>
