<svg width="20" height="20" viewBox="0 0 20 20" fill="none" xmlns="http://www.w3.org/2000/svg">
<path fill-rule="evenodd" clip-rule="evenodd" d="M3.18953 9.07316C7.50835 7.19152 10.3882 5.95103 11.8292 5.35169C15.9434 3.64043 16.7983 3.34317 17.3556 3.33336C17.4781 3.3312 17.7521 3.36157 17.9296 3.5056C18.0795 3.62721 18.1208 3.7915 18.1405 3.9068C18.1602 4.02211 18.1848 4.28477 18.1653 4.49001C17.9423 6.83259 16.9776 12.5174 16.4868 15.1411C16.2791 16.2513 15.8702 16.6235 15.4744 16.66C14.614 16.7391 13.9607 16.0914 13.1275 15.5452C11.8236 14.6905 11.0869 14.1584 9.82129 13.3244C8.3586 12.3605 9.3068 11.8307 10.1404 10.9649C10.3585 10.7383 14.1491 7.29048 14.2225 6.97771C14.2317 6.93859 14.2402 6.79278 14.1536 6.71578C14.067 6.63879 13.9391 6.66512 13.8468 6.68606C13.7161 6.71574 11.6331 8.09252 7.59786 10.8164C7.00661 11.2224 6.47107 11.4202 5.99125 11.4098C5.46229 11.3984 4.44477 11.1108 3.68835 10.8649C2.76057 10.5633 2.02318 10.4038 2.08739 9.89166C2.12084 9.62488 2.48821 9.35205 3.18953 9.07316Z" fill="white"/>
</svg>
