<svg width="20" height="20" viewBox="0 0 20 20" fill="none" xmlns="http://www.w3.org/2000/svg">
<path fill-rule="evenodd" clip-rule="evenodd" d="M3.1894 9.07329C7.50823 7.19165 10.3881 5.95115 11.8291 5.35181C15.9433 3.64056 16.7982 3.34329 17.3554 3.33348C17.478 3.33132 17.752 3.36169 17.9295 3.50572C18.0794 3.62734 18.1206 3.79162 18.1404 3.90692C18.1601 4.02223 18.1847 4.2849 18.1651 4.49013C17.9422 6.83271 16.9775 12.5175 16.4867 15.1412C16.279 16.2514 15.8701 16.6237 15.4742 16.6601C14.6139 16.7393 13.9606 16.0915 13.1273 15.5453C11.8234 14.6906 11.0868 14.1585 9.82117 13.3245C8.35848 12.3606 9.30668 11.8308 10.1403 10.965C10.3584 10.7385 14.149 7.2906 14.2224 6.97783C14.2316 6.93871 14.2401 6.7929 14.1535 6.71591C14.0668 6.63891 13.939 6.66524 13.8467 6.68618C13.7159 6.71586 11.633 8.09264 7.59774 10.8165C7.00649 11.2225 6.47095 11.4203 5.99113 11.41C5.46216 11.3985 4.44464 11.1109 3.68822 10.865C2.76044 10.5634 2.02306 10.404 2.08727 9.89178C2.12072 9.62501 2.48809 9.35217 3.1894 9.07329Z" fill="white"/>
</svg>
