<svg width="20" height="20" viewBox="0 0 20 20" fill="none" xmlns="http://www.w3.org/2000/svg">
<path fill-rule="evenodd" clip-rule="evenodd" d="M3.18953 9.07329C7.50835 7.19165 10.3882 5.95115 11.8292 5.35181C15.9434 3.64056 16.7983 3.34329 17.3556 3.33348C17.4781 3.33132 17.7521 3.36169 17.9296 3.50572C18.0795 3.62734 18.1208 3.79162 18.1405 3.90692C18.1602 4.02223 18.1848 4.2849 18.1653 4.49013C17.9423 6.83271 16.9776 12.5175 16.4868 15.1412C16.2791 16.2514 15.8702 16.6237 15.4744 16.6601C14.614 16.7393 13.9607 16.0915 13.1275 15.5453C11.8236 14.6906 11.0869 14.1585 9.82129 13.3245C8.3586 12.3606 9.3068 11.8308 10.1404 10.965C10.3585 10.7385 14.1491 7.2906 14.2225 6.97783C14.2317 6.93871 14.2402 6.7929 14.1536 6.71591C14.067 6.63891 13.9391 6.66524 13.8468 6.68618C13.7161 6.71586 11.6331 8.09264 7.59786 10.8165C7.00661 11.2225 6.47107 11.4203 5.99125 11.41C5.46229 11.3985 4.44477 11.1109 3.68835 10.865C2.76057 10.5634 2.02318 10.404 2.08739 9.89178C2.12084 9.62501 2.48821 9.35217 3.18953 9.07329Z" fill="white"/>
</svg>
