<svg width="20" height="20" viewBox="0 0 20 20" fill="none" xmlns="http://www.w3.org/2000/svg">
<path fill-rule="evenodd" clip-rule="evenodd" d="M3.19001 9.07329C7.50884 7.19165 10.3887 5.95115 11.8297 5.35181C15.9439 3.64056 16.7988 3.34329 17.3561 3.33348C17.4786 3.33132 17.7526 3.36169 17.9301 3.50572C18.08 3.62734 18.1212 3.79162 18.141 3.90692C18.1607 4.02223 18.1853 4.2849 18.1657 4.49013C17.9428 6.83271 16.9781 12.5175 16.4873 15.1412C16.2796 16.2514 15.8707 16.6237 15.4748 16.6601C14.6145 16.7393 13.9612 16.0915 13.128 15.5453C11.8241 14.6906 11.0874 14.1585 9.82178 13.3245C8.35909 12.3606 9.30729 11.8308 10.1409 10.965C10.359 10.7385 14.1496 7.2906 14.223 6.97783C14.2322 6.93871 14.2407 6.7929 14.1541 6.71591C14.0674 6.63891 13.9396 6.66524 13.8473 6.68618C13.7166 6.71586 11.6336 8.09264 7.59835 10.8165C7.0071 11.2225 6.47156 11.4203 5.99174 11.41C5.46277 11.3985 4.44526 11.1109 3.68883 10.865C2.76105 10.5634 2.02367 10.404 2.08788 9.89178C2.12133 9.62501 2.4887 9.35217 3.19001 9.07329Z" fill="white"/>
</svg>
