<svg width="20" height="20" viewBox="0 0 20 20" fill="none" xmlns="http://www.w3.org/2000/svg">
<g clip-path="url(#clip0_1_628)">
<path d="M10.0007 7.27271C8.49615 7.27271 7.27344 8.49542 7.27344 9.99998C7.27344 11.5045 8.49615 12.7273 10.0007 12.7273C11.5053 12.7273 12.728 11.5045 12.728 9.99998C12.728 8.49542 11.5052 7.27271 10.0007 7.27271Z" fill="#4F4F4F"/>
<path d="M10 3.18188C5.45455 3.18188 1.57274 6.00913 0 10.0001C1.57274 13.991 5.45455 16.8183 10 16.8183C14.55 16.8183 18.4273 13.991 20 10.0001C18.4273 6.00913 14.55 3.18188 10 3.18188ZM10 14.5455C7.49093 14.5455 5.45455 12.5091 5.45455 10C5.45455 7.49094 7.49093 5.4546 10 5.4546C12.5091 5.4546 14.5455 7.49098 14.5455 10.0001C14.5455 12.5092 12.5091 14.5455 10 14.5455Z" fill="#4F4F4F"/>
</g>
<defs>
<clipPath id="clip0_1_628">
<rect width="20" height="20" fill="white"/>
</clipPath>
</defs>
</svg>
