<svg width="21" height="21" viewBox="0 0 21 21" fill="none" xmlns="http://www.w3.org/2000/svg">
<path d="M16.5327 5.43543H16.1993L13.3827 2.61876C13.1577 2.39376 12.791 2.39376 12.5577 2.61876C12.3327 2.84376 12.3327 3.21043 12.5577 3.44376L14.5493 5.43543H6.44935L8.44102 3.44376C8.66602 3.21876 8.66602 2.8521 8.44102 2.61876C8.21602 2.39376 7.84935 2.39376 7.61602 2.61876L4.80768 5.43543H4.47435C3.72435 5.43543 2.16602 5.43543 2.16602 7.56876C2.16602 8.3771 2.33268 8.91043 2.68268 9.26043C2.88268 9.46876 3.12435 9.5771 3.38268 9.63543C3.62435 9.69376 3.88268 9.7021 4.13268 9.7021H16.866C17.1243 9.7021 17.366 9.68543 17.5993 9.63543C18.2993 9.46876 18.8327 8.96876 18.8327 7.56876C18.8327 5.43543 17.2743 5.43543 16.5327 5.43543Z" fill="#BF40BF"/>
<path d="M16.3755 10.7854H4.55887C4.0422 10.7854 3.65054 11.2437 3.73387 11.7521L4.43387 16.0354C4.6672 17.4687 5.2922 19.1187 8.0672 19.1187H12.7422C15.5505 19.1187 16.0505 17.7104 16.3505 16.1354L17.1922 11.7771C17.2922 11.2604 16.9005 10.7854 16.3755 10.7854ZM9.3422 16.1604C9.3422 16.4854 9.08387 16.7437 8.7672 16.7437C8.4422 16.7437 8.18387 16.4854 8.18387 16.1604V13.4104C8.18387 13.0937 8.4422 12.8271 8.7672 12.8271C9.08387 12.8271 9.3422 13.0937 9.3422 13.4104V16.1604ZM12.9089 16.1604C12.9089 16.4854 12.6505 16.7437 12.3255 16.7437C12.0089 16.7437 11.7422 16.4854 11.7422 16.1604V13.4104C11.7422 13.0937 12.0089 12.8271 12.3255 12.8271C12.6505 12.8271 12.9089 13.0937 12.9089 13.4104V16.1604Z" fill="#BF40BF"/>
</svg>
