<svg width="20" height="20" viewBox="0 0 20 20" fill="none" xmlns="http://www.w3.org/2000/svg">
<path d="M18.3327 15.8333V18.3333H1.66602V15.8333C1.66602 15.375 2.04102 15 2.49935 15H17.4993C17.9577 15 18.3327 15.375 18.3327 15.8333Z" fill="#BF40BF" stroke="#BF40BF" stroke-width="1.5" stroke-miterlimit="10" stroke-linecap="round" stroke-linejoin="round"/>
<path d="M5.83268 9.16675H4.16602V15.0001H5.83268V9.16675Z" fill="#BF40BF"/>
<path d="M9.16667 9.16675H7.5V15.0001H9.16667V9.16675Z" fill="#BF40BF"/>
<path d="M12.5007 9.16675H10.834V15.0001H12.5007V9.16675Z" fill="#BF40BF"/>
<path d="M15.8327 9.16675H14.166V15.0001H15.8327V9.16675Z" fill="#BF40BF"/>
<path d="M19.1673 18.9583H0.833984C0.492318 18.9583 0.208984 18.6749 0.208984 18.3333C0.208984 17.9916 0.492318 17.7083 0.833984 17.7083H19.1673C19.509 17.7083 19.7923 17.9916 19.7923 18.3333C19.7923 18.6749 19.509 18.9583 19.1673 18.9583Z" fill="#BF40BF"/>
<path d="M17.8077 4.7917L10.3077 1.7917C10.141 1.72503 9.85768 1.72503 9.69102 1.7917L2.19102 4.7917C1.89935 4.90837 1.66602 5.25003 1.66602 5.5667V8.33337C1.66602 8.7917 2.04102 9.1667 2.49935 9.1667H17.4993C17.9577 9.1667 18.3327 8.7917 18.3327 8.33337V5.5667C18.3327 5.25003 18.0993 4.90837 17.8077 4.7917ZM9.99935 7.08337C9.30768 7.08337 8.74935 6.52503 8.74935 5.83337C8.74935 5.1417 9.30768 4.58337 9.99935 4.58337C10.691 4.58337 11.2493 5.1417 11.2493 5.83337C11.2493 6.52503 10.691 7.08337 9.99935 7.08337Z" fill="#BF40BF"/>
</svg>
