<svg width="29" height="29" viewBox="0 0 29 29" fill="none" xmlns="http://www.w3.org/2000/svg">
<path d="M18.0001 27.2962H10.889C5.66237 27.2962 4.07422 25.708 4.07422 20.4814V8.62951C4.07422 3.40285 5.66237 1.8147 10.889 1.8147H18.0001C23.2268 1.8147 24.815 3.40285 24.815 8.62951V20.4814C24.815 25.708 23.2268 27.2962 18.0001 27.2962ZM10.889 3.59248C6.64607 3.59248 5.852 4.3984 5.852 8.62951V20.4814C5.852 24.7125 6.64607 25.5184 10.889 25.5184H18.0001C22.2431 25.5184 23.0372 24.7125 23.0372 20.4814V8.62951C23.0372 4.3984 22.2431 3.59248 18.0001 3.59248H10.889Z" fill="white"/>
<path d="M16.8152 7.74067H12.0744C11.5885 7.74067 11.1855 7.33771 11.1855 6.85178C11.1855 6.36585 11.5885 5.96289 12.0744 5.96289H16.8152C17.3011 5.96289 17.7041 6.36585 17.7041 6.85178C17.7041 7.33771 17.3011 7.74067 16.8152 7.74067Z" fill="white"/>
<path d="M14.4447 23.871C12.9395 23.871 11.7188 22.6503 11.7188 21.1451C11.7188 19.6399 12.9395 18.4192 14.4447 18.4192C15.9499 18.4192 17.1706 19.6399 17.1706 21.1451C17.1706 22.6503 15.9499 23.871 14.4447 23.871ZM14.4447 20.1851C13.9232 20.1851 13.4965 20.6118 13.4965 21.1333C13.4965 21.6547 13.9232 22.0814 14.4447 22.0814C14.9662 22.0814 15.3928 21.6547 15.3928 21.1333C15.3928 20.6118 14.9662 20.1851 14.4447 20.1851Z" fill="white"/>
</svg>
