<svg width="21" height="21" viewBox="0 0 21 21" fill="none" xmlns="http://www.w3.org/2000/svg">
<path d="M16.5327 4.85846H16.1993L13.3827 2.0418C13.1577 1.8168 12.791 1.8168 12.5577 2.0418C12.3327 2.2668 12.3327 2.63346 12.5577 2.8668L14.5493 4.85846H6.44935L8.44102 2.8668C8.66602 2.6418 8.66602 2.27513 8.44102 2.0418C8.21602 1.8168 7.84935 1.8168 7.61602 2.0418L4.80768 4.85846H4.47435C3.72435 4.85846 2.16602 4.85846 2.16602 6.9918C2.16602 7.80013 2.33268 8.33346 2.68268 8.68346C2.88268 8.8918 3.12435 9.00013 3.38268 9.05846C3.62435 9.1168 3.88268 9.12513 4.13268 9.12513H16.866C17.1243 9.12513 17.366 9.10846 17.5993 9.05846C18.2993 8.8918 18.8327 8.3918 18.8327 6.9918C18.8327 4.85846 17.2743 4.85846 16.5327 4.85846Z" fill="#BF40BF"/>
<path d="M16.3755 10.2085H4.55887C4.0422 10.2085 3.65054 10.6668 3.73387 11.1752L4.43387 15.4585C4.6672 16.8918 5.2922 18.5418 8.0672 18.5418H12.7422C15.5505 18.5418 16.0505 17.1335 16.3505 15.5585L17.1922 11.2002C17.2922 10.6835 16.9005 10.2085 16.3755 10.2085ZM9.3422 15.5835C9.3422 15.9085 9.08387 16.1668 8.7672 16.1668C8.4422 16.1668 8.18387 15.9085 8.18387 15.5835V12.8335C8.18387 12.5168 8.4422 12.2502 8.7672 12.2502C9.08387 12.2502 9.3422 12.5168 9.3422 12.8335V15.5835ZM12.9089 15.5835C12.9089 15.9085 12.6505 16.1668 12.3255 16.1668C12.0089 16.1668 11.7422 15.9085 11.7422 15.5835V12.8335C11.7422 12.5168 12.0089 12.2502 12.3255 12.2502C12.6505 12.2502 12.9089 12.5168 12.9089 12.8335V15.5835Z" fill="#BF40BF"/>
</svg>
