<svg width="20" height="20" viewBox="0 0 20 20" fill="none" xmlns="http://www.w3.org/2000/svg">
<path d="M12.3757 3.29183V6.4585H11.1257V3.29183C11.1257 3.06683 10.9257 2.9585 10.7923 2.9585C10.7507 2.9585 10.709 2.96683 10.6673 2.9835L4.05898 5.47516C3.61732 5.64183 3.33398 6.0585 3.33398 6.5335V7.09183C2.57565 7.6585 2.08398 8.56683 2.08398 9.59183V6.5335C2.08398 5.54183 2.69232 4.6585 3.61732 4.3085L10.234 1.8085C10.4173 1.74183 10.609 1.7085 10.7923 1.7085C11.6257 1.7085 12.3757 2.3835 12.3757 3.29183Z" fill="#292D32"/>
<path d="M17.9159 12.0832V12.9165C17.9159 13.1415 17.7409 13.3248 17.5076 13.3332H16.2909C15.8493 13.3332 15.4493 13.0082 15.4159 12.5748C15.3909 12.3165 15.4909 12.0748 15.6576 11.9082C15.8076 11.7498 16.0159 11.6665 16.2409 11.6665H17.4993C17.7409 11.6748 17.9159 11.8582 17.9159 12.0832Z" fill="#292D32"/>
<path d="M16.234 10.7918H17.084C17.5423 10.7918 17.9173 10.4168 17.9173 9.9585V9.59183C17.9173 7.86683 16.509 6.4585 14.784 6.4585H5.21732C4.50898 6.4585 3.85898 6.69183 3.33398 7.09183C2.57565 7.6585 2.08398 8.56683 2.08398 9.59183V15.2002C2.08398 16.9252 3.49232 18.3335 5.21732 18.3335H14.784C16.509 18.3335 17.9173 16.9252 17.9173 15.2002V15.0418C17.9173 14.5835 17.5423 14.2085 17.084 14.2085H16.359C15.559 14.2085 14.7923 13.7168 14.584 12.9418C14.409 12.3085 14.6173 11.7002 15.034 11.2918C15.3423 10.9752 15.7673 10.7918 16.234 10.7918ZM11.6673 10.6252H5.83398C5.49232 10.6252 5.20898 10.3418 5.20898 10.0002C5.20898 9.6585 5.49232 9.37516 5.83398 9.37516H11.6673C12.009 9.37516 12.2923 9.6585 12.2923 10.0002C12.2923 10.3418 12.009 10.6252 11.6673 10.6252Z" fill="#292D32"/>
</svg>
