<svg width="21" height="21" viewBox="0 0 21 21" fill="none" xmlns="http://www.w3.org/2000/svg">
<path d="M16.5327 4.89997H16.1993L13.3827 2.0833C13.1577 1.8583 12.791 1.8583 12.5577 2.0833C12.3327 2.3083 12.3327 2.67497 12.5577 2.9083L14.5493 4.89997H6.44935L8.44102 2.9083C8.66602 2.6833 8.66602 2.31663 8.44102 2.0833C8.21602 1.8583 7.84935 1.8583 7.61602 2.0833L4.80768 4.89997H4.47435C3.72435 4.89997 2.16602 4.89997 2.16602 7.0333C2.16602 7.84163 2.33268 8.37497 2.68268 8.72497C2.88268 8.9333 3.12435 9.04163 3.38268 9.09997C3.62435 9.1583 3.88268 9.16663 4.13268 9.16663H16.866C17.1243 9.16663 17.366 9.14997 17.5993 9.09997C18.2993 8.9333 18.8327 8.4333 18.8327 7.0333C18.8327 4.89997 17.2743 4.89997 16.5327 4.89997Z" fill="#BF40BF"/>
<path d="M16.3755 10.25H4.55887C4.0422 10.25 3.65054 10.7083 3.73387 11.2167L4.43387 15.5C4.6672 16.9333 5.2922 18.5833 8.0672 18.5833H12.7422C15.5505 18.5833 16.0505 17.175 16.3505 15.6L17.1922 11.2417C17.2922 10.725 16.9005 10.25 16.3755 10.25ZM9.3422 15.625C9.3422 15.95 9.08387 16.2083 8.7672 16.2083C8.4422 16.2083 8.18387 15.95 8.18387 15.625V12.875C8.18387 12.5583 8.4422 12.2917 8.7672 12.2917C9.08387 12.2917 9.3422 12.5583 9.3422 12.875V15.625ZM12.9089 15.625C12.9089 15.95 12.6505 16.2083 12.3255 16.2083C12.0089 16.2083 11.7422 15.95 11.7422 15.625V12.875C11.7422 12.5583 12.0089 12.2917 12.3255 12.2917C12.6505 12.2917 12.9089 12.5583 12.9089 12.875V15.625Z" fill="#BF40BF"/>
</svg>
