<svg width="21" height="21" viewBox="0 0 21 21" fill="none" xmlns="http://www.w3.org/2000/svg">
<path d="M16.5327 5.43537H16.1993L13.3827 2.6187C13.1577 2.3937 12.791 2.3937 12.5577 2.6187C12.3327 2.8437 12.3327 3.21037 12.5577 3.4437L14.5493 5.43537H6.44935L8.44102 3.4437C8.66602 3.2187 8.66602 2.85203 8.44102 2.6187C8.21602 2.3937 7.84935 2.3937 7.61602 2.6187L4.80768 5.43537H4.47435C3.72435 5.43537 2.16602 5.43537 2.16602 7.5687C2.16602 8.37703 2.33268 8.91037 2.68268 9.26037C2.88268 9.4687 3.12435 9.57703 3.38268 9.63537C3.62435 9.6937 3.88268 9.70203 4.13268 9.70203H16.866C17.1243 9.70203 17.366 9.68537 17.5993 9.63537C18.2993 9.4687 18.8327 8.9687 18.8327 7.5687C18.8327 5.43537 17.2743 5.43537 16.5327 5.43537Z" fill="#BF40BF"/>
<path d="M16.3755 10.7854H4.55887C4.0422 10.7854 3.65054 11.2437 3.73387 11.7521L4.43387 16.0354C4.6672 17.4687 5.2922 19.1187 8.0672 19.1187H12.7422C15.5505 19.1187 16.0505 17.7104 16.3505 16.1354L17.1922 11.7771C17.2922 11.2604 16.9005 10.7854 16.3755 10.7854ZM9.3422 16.1604C9.3422 16.4854 9.08387 16.7437 8.7672 16.7437C8.4422 16.7437 8.18387 16.4854 8.18387 16.1604V13.4104C8.18387 13.0937 8.4422 12.8271 8.7672 12.8271C9.08387 12.8271 9.3422 13.0937 9.3422 13.4104V16.1604ZM12.9089 16.1604C12.9089 16.4854 12.6505 16.7437 12.3255 16.7437C12.0089 16.7437 11.7422 16.4854 11.7422 16.1604V13.4104C11.7422 13.0937 12.0089 12.8271 12.3255 12.8271C12.6505 12.8271 12.9089 13.0937 12.9089 13.4104V16.1604Z" fill="#BF40BF"/>
</svg>
