<svg width="21" height="21" viewBox="0 0 21 21" fill="none" xmlns="http://www.w3.org/2000/svg">
<path d="M16.5327 4.66541H16.1993L13.3827 1.84874C13.1577 1.62374 12.791 1.62374 12.5577 1.84874C12.3327 2.07374 12.3327 2.44041 12.5577 2.67374L14.5493 4.66541H6.44935L8.44102 2.67374C8.66602 2.44874 8.66602 2.08208 8.44102 1.84874C8.21602 1.62374 7.84935 1.62374 7.61602 1.84874L4.80768 4.66541H4.47435C3.72435 4.66541 2.16602 4.66541 2.16602 6.79874C2.16602 7.60708 2.33268 8.14041 2.68268 8.49041C2.88268 8.69874 3.12435 8.80708 3.38268 8.86541C3.62435 8.92374 3.88268 8.93208 4.13268 8.93208H16.866C17.1243 8.93208 17.366 8.91541 17.5993 8.86541C18.2993 8.69874 18.8327 8.19874 18.8327 6.79874C18.8327 4.66541 17.2743 4.66541 16.5327 4.66541Z" fill="#BF40BF"/>
<path d="M16.3755 10.0154H4.55887C4.0422 10.0154 3.65054 10.4737 3.73387 10.982L4.43387 15.2654C4.6672 16.6987 5.2922 18.3487 8.0672 18.3487H12.7422C15.5505 18.3487 16.0505 16.9404 16.3505 15.3654L17.1922 11.007C17.2922 10.4904 16.9005 10.0154 16.3755 10.0154ZM9.3422 15.3904C9.3422 15.7154 9.08387 15.9737 8.7672 15.9737C8.4422 15.9737 8.18387 15.7154 8.18387 15.3904V12.6404C8.18387 12.3237 8.4422 12.057 8.7672 12.057C9.08387 12.057 9.3422 12.3237 9.3422 12.6404V15.3904ZM12.9089 15.3904C12.9089 15.7154 12.6505 15.9737 12.3255 15.9737C12.0089 15.9737 11.7422 15.7154 11.7422 15.3904V12.6404C11.7422 12.3237 12.0089 12.057 12.3255 12.057C12.6505 12.057 12.9089 12.3237 12.9089 12.6404V15.3904Z" fill="#BF40BF"/>
</svg>
