<svg width="100" height="100" viewBox="0 0 100 100" fill="none" xmlns="http://www.w3.org/2000/svg">
<path d="M50.0007 94.7918C25.2923 94.7918 5.20898 74.7085 5.20898 50.0002C5.20898 25.2918 25.2923 5.2085 50.0007 5.2085C74.709 5.2085 94.7923 25.2918 94.7923 50.0002C94.7923 74.7085 74.709 94.7918 50.0007 94.7918ZM50.0007 11.4585C28.7507 11.4585 11.459 28.7502 11.459 50.0002C11.459 71.2502 28.7507 88.5418 50.0007 88.5418C71.2507 88.5418 88.5423 71.2502 88.5423 50.0002C88.5423 28.7502 71.2507 11.4585 50.0007 11.4585Z" fill="#E0E0E0"/>
<path d="M50 57.2916C48.2917 57.2916 46.875 55.8749 46.875 54.1666V33.3333C46.875 31.6249 48.2917 30.2083 50 30.2083C51.7083 30.2083 53.125 31.6249 53.125 33.3333V54.1666C53.125 55.8749 51.7083 57.2916 50 57.2916Z" fill="#E0E0E0"/>
<path d="M50.0007 70.8335C49.459 70.8335 48.9173 70.7085 48.4173 70.5002C47.9173 70.2918 47.459 70.0002 47.0423 69.6252C46.6673 69.2085 46.3757 68.7918 46.1673 68.2502C45.959 67.7502 45.834 67.2085 45.834 66.6668C45.834 66.1252 45.959 65.5835 46.1673 65.0835C46.3757 64.5835 46.6673 64.1252 47.0423 63.7085C47.459 63.3335 47.9173 63.0418 48.4173 62.8335C49.4173 62.4168 50.584 62.4168 51.584 62.8335C52.084 63.0418 52.5423 63.3335 52.959 63.7085C53.334 64.1252 53.6257 64.5835 53.834 65.0835C54.0423 65.5835 54.1673 66.1252 54.1673 66.6668C54.1673 67.2085 54.0423 67.7502 53.834 68.2502C53.6257 68.7918 53.334 69.2085 52.959 69.6252C52.5423 70.0002 52.084 70.2918 51.584 70.5002C51.084 70.7085 50.5423 70.8335 50.0007 70.8335Z" fill="#E0E0E0"/>
</svg>
