<svg width="20" height="20" viewBox="0 0 20 20" fill="none" xmlns="http://www.w3.org/2000/svg">
<path d="M10.625 13.2666H11.1667C11.7083 13.2666 12.1583 12.7833 12.1583 12.1999C12.1583 11.4749 11.9 11.3333 11.475 11.1833L10.6333 10.8916V13.2666H10.625Z" fill="#292D32"/>
<path d="M9.97441 1.58351C5.3744 1.60018 1.6494 5.34184 1.66607 9.94184C1.68274 14.5418 5.4244 18.2668 10.0244 18.2502C14.6244 18.2335 18.3494 14.4918 18.3327 9.89184C18.3161 5.29184 14.5744 1.57518 9.97441 1.58351ZM11.8827 10.0002C12.5327 10.2252 13.4077 10.7085 13.4077 12.2002C13.4077 13.4835 12.3994 14.5168 11.1661 14.5168H10.6244V15.0002C10.6244 15.3418 10.3411 15.6252 9.9994 15.6252C9.65774 15.6252 9.3744 15.3418 9.3744 15.0002V14.5168H9.07441C7.70774 14.5168 6.5994 13.3668 6.5994 11.9502C6.5994 11.6085 6.88274 11.3252 7.2244 11.3252C7.56607 11.3252 7.8494 11.6085 7.8494 11.9502C7.8494 12.6752 8.39941 13.2668 9.07441 13.2668H9.3744V10.4502L8.11607 10.0002C7.46607 9.77518 6.59107 9.29184 6.59107 7.80018C6.59107 6.51684 7.59941 5.48351 8.83274 5.48351H9.3744V5.00018C9.3744 4.65851 9.65774 4.37518 9.9994 4.37518C10.3411 4.37518 10.6244 4.65851 10.6244 5.00018V5.48351H10.9244C12.2911 5.48351 13.3994 6.63351 13.3994 8.05018C13.3994 8.39184 13.1161 8.67518 12.7744 8.67518C12.4327 8.67518 12.1494 8.39184 12.1494 8.05018C12.1494 7.32518 11.5994 6.73351 10.9244 6.73351H10.6244V9.55018L11.8827 10.0002Z" fill="#292D32"/>
<path d="M7.84961 7.8084C7.84961 8.5334 8.10794 8.67507 8.53294 8.82507L9.37461 9.11673V6.7334H8.83294C8.29128 6.7334 7.84961 7.21673 7.84961 7.8084Z" fill="#292D32"/>
</svg>
