<svg width="101" height="100" viewBox="0 0 101 100" fill="none" xmlns="http://www.w3.org/2000/svg">
<path d="M50.5007 94.7918C25.7923 94.7918 5.70898 74.7085 5.70898 50.0002C5.70898 25.2918 25.7923 5.2085 50.5007 5.2085C75.209 5.2085 95.2923 25.2918 95.2923 50.0002C95.2923 74.7085 75.209 94.7918 50.5007 94.7918ZM50.5007 11.4585C29.2507 11.4585 11.959 28.7502 11.959 50.0002C11.959 71.2502 29.2507 88.5418 50.5007 88.5418C71.7507 88.5418 89.0423 71.2502 89.0423 50.0002C89.0423 28.7502 71.7507 11.4585 50.5007 11.4585Z" fill="#E0E0E0"/>
<path d="M50.5 57.2916C48.7917 57.2916 47.375 55.8749 47.375 54.1666V33.3333C47.375 31.6249 48.7917 30.2083 50.5 30.2083C52.2083 30.2083 53.625 31.6249 53.625 33.3333V54.1666C53.625 55.8749 52.2083 57.2916 50.5 57.2916Z" fill="#E0E0E0"/>
<path d="M50.5007 70.8335C49.959 70.8335 49.4173 70.7085 48.9173 70.5002C48.4173 70.2918 47.959 70.0002 47.5423 69.6252C47.1673 69.2085 46.8757 68.7918 46.6673 68.2502C46.459 67.7502 46.334 67.2085 46.334 66.6668C46.334 66.1252 46.459 65.5835 46.6673 65.0835C46.8757 64.5835 47.1673 64.1252 47.5423 63.7085C47.959 63.3335 48.4173 63.0418 48.9173 62.8335C49.9173 62.4168 51.084 62.4168 52.084 62.8335C52.584 63.0418 53.0423 63.3335 53.459 63.7085C53.834 64.1252 54.1257 64.5835 54.334 65.0835C54.5423 65.5835 54.6673 66.1252 54.6673 66.6668C54.6673 67.2085 54.5423 67.7502 54.334 68.2502C54.1257 68.7918 53.834 69.2085 53.459 69.6252C53.0423 70.0002 52.584 70.2918 52.084 70.5002C51.584 70.7085 51.0423 70.8335 50.5007 70.8335Z" fill="#E0E0E0"/>
</svg>
