<svg width="8" height="8" viewBox="0 0 8 8" fill="none" xmlns="http://www.w3.org/2000/svg">
<g clip-path="url(#clip0_1_4019)">
<path d="M4.37791 2.9709H3.52167V2.11466C3.52167 2.00367 3.43162 1.91362 3.32063 1.91362C3.20964 1.91362 3.11959 2.00367 3.11959 2.11466V2.9709H2.26334C2.15236 2.9709 2.0623 3.06096 2.0623 3.17195C2.0623 3.28293 2.15236 3.37299 2.26334 3.37299H3.11959V4.22923C3.11959 4.34022 3.20964 4.43027 3.32063 4.43027C3.43162 4.43027 3.52167 4.34022 3.52167 4.22923V3.37299H4.37791C4.4889 3.37299 4.57895 3.28293 4.57895 3.17195C4.57895 3.06096 4.4889 2.9709 4.37791 2.9709Z" fill="#4F4F4F" stroke="black" stroke-width="0.1"/>
<path d="M7.55541 7.98818C7.59493 8.02951 7.64778 8.05 7.70045 8.05C7.75067 8.05 7.8008 8.03127 7.83973 7.99395L7.83979 7.99389C7.91981 7.91689 7.9222 7.78966 7.84542 7.70967L7.84539 7.70963L5.63476 5.41063C6.19596 4.83061 6.54213 4.04095 6.54213 3.17185C6.54213 1.39519 5.09694 -0.05 3.32028 -0.05C1.54362 -0.05 0.0984375 1.39519 0.0984375 3.17185C0.0984375 4.94851 1.54362 6.39369 3.32028 6.39369C4.08348 6.39369 4.78531 6.12666 5.33773 5.68177L7.55541 7.98818ZM7.55541 7.98818L7.59155 7.95363M7.55541 7.98818L7.55551 7.98829L7.59155 7.95363M7.59155 7.95363C7.62116 7.98459 7.66073 8 7.70045 8C7.73821 8 7.77582 7.98595 7.80512 7.95786L7.59155 7.95363ZM0.500518 3.17185C0.500518 1.61701 1.76545 0.352081 3.32028 0.352081C4.87512 0.352081 6.14005 1.61701 6.14005 3.17185C6.14005 4.72668 4.87512 5.99161 3.32028 5.99161C1.76545 5.99161 0.500518 4.72668 0.500518 3.17185Z" fill="#4F4F4F" stroke="black" stroke-width="0.1"/>
</g>
<defs>
<clipPath id="clip0_1_4019">
<rect width="8" height="8" fill="white"/>
</clipPath>
</defs>
</svg>
