<?xml version="1.0" encoding="UTF-8"?>
<svg xmlns="http://www.w3.org/2000/svg" width="132" height="39.246" viewBox="0 0 132 39.246">
  <path id="app-store-hover-en" d="M78.109-705.754H-44.109A4.9,4.9,0,0,1-49-710.66v-29.435A4.9,4.9,0,0,1-44.109-745H78.109A4.9,4.9,0,0,1,83-740.094v29.435a4.9,4.9,0,0,1-4.891,4.9ZM7.6-723.557v12.048H9.455v-4.484H9.5a3.068,3.068,0,0,0,2.688,1.588h.16a3.429,3.429,0,0,0,2.742-1.256,5.229,5.229,0,0,0,1.037-3.366,5.2,5.2,0,0,0-1.045-3.363,3.472,3.472,0,0,0-2.768-1.259h-.1a3.219,3.219,0,0,0-2.777,1.6H9.4v-1.506Zm-9.965,0v12.048H-.51v-4.484h.043A3.068,3.068,0,0,0,2.221-714.4h.16a3.428,3.428,0,0,0,2.741-1.256A5.23,5.23,0,0,0,6.16-719.03a5.2,5.2,0,0,0-1.045-3.363,3.471,3.471,0,0,0-2.768-1.259h-.1a3.219,3.219,0,0,0-2.777,1.6H-.57v-1.506Zm23.176,5.593h0c.12,2.227,1.978,3.667,4.734,3.667a5.608,5.608,0,0,0,3.5-1.018,3.384,3.384,0,0,0,1.293-2.76c0-1.815-1.078-2.844-3.6-3.443l-1.368-.336c-1.6-.4-2.254-.914-2.254-1.79,0-1.094,1.037-1.859,2.521-1.859,1.514,0,2.523.762,2.634,1.988h1.876c-.061-2.161-1.862-3.614-4.484-3.614-2.66,0-4.518,1.486-4.518,3.614,0,1.733,1.061,2.8,3.339,3.347l1.609.388c1.6.394,2.289.973,2.289,1.937,0,1.112-1.132,1.919-2.693,1.919-1.639,0-2.833-.82-2.969-2.04h-1.9Zm35.6-5.705c-2.546,0-4.19,1.838-4.19,4.682s1.635,4.6,4.268,4.6c2.047,0,3.65-1.14,3.9-2.771h-1.77a2.039,2.039,0,0,1-1.9,1.282,1.369,1.369,0,0,1-.192-.009h-.085a2.371,2.371,0,0,1-1.711-.734,2.36,2.36,0,0,1-.639-1.832v-.112h6.4v-.637a4.733,4.733,0,0,0-1.1-3.262,3.9,3.9,0,0,0-2.979-1.206Zm-15.049,0a4.134,4.134,0,0,0-3.128,1.251,4.865,4.865,0,0,0-1.166,3.387,4.876,4.876,0,0,0,1.159,3.391,4.138,4.138,0,0,0,3.134,1.248A4.139,4.139,0,0,0,44.5-715.64a4.875,4.875,0,0,0,1.16-3.391,4.869,4.869,0,0,0-1.163-3.387,4.136,4.136,0,0,0-3.134-1.25Zm-8.879,1.583v5.189c0,1.759.714,2.444,2.548,2.444h.094a5.144,5.144,0,0,0,.939-.086V-716a5.794,5.794,0,0,1-.611.043c-.752,0-1.1-.361-1.1-1.137v-4.991h1.722v-1.471H34.347V-725.7H32.479v2.143H31.163v1.471ZM-8-726.922h-2.083L-14.573-714.5h2.005l1.136-3.356H-6.7l1.136,3.357h2.039Zm55.192,3.364v9.054h1.859v-5.37a1.869,1.869,0,0,1,.49-1.487,1.879,1.879,0,0,1,1.373-.6h.149a2.6,2.6,0,0,1,.76.114v-1.738a2.874,2.874,0,0,0-.625-.069h-.1a2.155,2.155,0,0,0-2.1,1.638h-.042v-1.541Zm-80.9-8.066h-.065a5.553,5.553,0,0,0-4.651,2.837,8.949,8.949,0,0,0-.769,5.957,14.43,14.43,0,0,0,2.185,5.457c.846,1.209,2,2.865,3.487,2.865h.069a4.37,4.37,0,0,0,1.641-.434,4.861,4.861,0,0,1,2.089-.486,4.585,4.585,0,0,1,1.983.47,3.924,3.924,0,0,0,1.669.417H-26c1.493-.024,2.447-1.272,3.453-2.776a11.394,11.394,0,0,0,1.579-3.216A4.967,4.967,0,0,1-24-725.11a5.12,5.12,0,0,1,2.451-4.317,5.288,5.288,0,0,0-4.151-2.244,3.467,3.467,0,0,0-.363-.019,7.277,7.277,0,0,0-2.609.662,4.377,4.377,0,0,1-1.356.4,4.261,4.261,0,0,1-1.409-.408,6.227,6.227,0,0,0-2.282-.587Zm88.529-.029h0a1.825,1.825,0,0,0,.2.011,1.835,1.835,0,0,0,1.752-1.313h-.855a1.08,1.08,0,0,1-.942.553,1.085,1.085,0,0,1-.129-.008h-.016a1.192,1.192,0,0,1-.87-.38,1.193,1.193,0,0,1-.314-.91v-.049h3.18v-.31c0-1.421-.751-2.27-2.009-2.27H54.8a2.077,2.077,0,0,0-1.556.7,2.075,2.075,0,0,0-.5,1.65,2.042,2.042,0,0,0,.5,1.643,2.047,2.047,0,0,0,1.523.681ZM33.362-736.33a2.133,2.133,0,0,0-1.125.321,2.123,2.123,0,0,0-1,2.016,2.122,2.122,0,0,0,1,2.019,2.131,2.131,0,0,0,1.126.321,2.131,2.131,0,0,0,1.126-.321,2.119,2.119,0,0,0,1-2.019,2.121,2.121,0,0,0-1-2.016,2.134,2.134,0,0,0-1.135-.32Zm-18.012,0a2.13,2.13,0,0,0-1.125.321,2.12,2.12,0,0,0-1,2.016,2.119,2.119,0,0,0,1,2.019,2.137,2.137,0,0,0,1.127.321,2.137,2.137,0,0,0,1.126-.321,2.119,2.119,0,0,0,1-2.019,2.12,2.12,0,0,0-1-2.016,2.13,2.13,0,0,0-1.136-.32Zm-19.537,0a2.13,2.13,0,0,0-1.125.321,2.12,2.12,0,0,0-1,2.016,2.119,2.119,0,0,0,1,2.019,2.131,2.131,0,0,0,1.126.321,2.131,2.131,0,0,0,1.126-.321,2.12,2.12,0,0,0,1-2.019,2.12,2.12,0,0,0-1-2.016,2.13,2.13,0,0,0-1.14-.32Zm24.57.77c.594,0,.922.264.922.743v.389l-1.219.07c-1.08.067-1.675.545-1.675,1.345a1.364,1.364,0,0,0,.451,1.007,1.361,1.361,0,0,0,.91.347.976.976,0,0,0,.14-.007h.07a1.5,1.5,0,0,0,1.282-.708h.07v.633h.856v-3.077c0-.961-.644-1.513-1.766-1.513-1.027,0-1.749.5-1.84,1.27h.86c.089-.316.432-.5.93-.5Zm4.914-.759h-.07c-1.136,0-1.869.912-1.869,2.324,0,1.436.716,2.327,1.869,2.327h.059a1.565,1.565,0,0,0,1.355-.787h.07v.712h.851V-738h-.888v2.473H26.6a1.478,1.478,0,0,0-1.312-.791Zm19.338.845v2.543c0,.863.4,1.215,1.382,1.215a2.836,2.836,0,0,0,.483-.045v-.74a3.084,3.084,0,0,1-.339.02c-.44,0-.636-.209-.636-.678v-2.316H46.5v-.749h-.976v-1.141h-.89v1.141H43.92v.749Zm5.016-.041h.086c.63,0,.963.375.963,1.084v2.688h.889v-2.907a1.479,1.479,0,0,0-.381-1.2,1.488,1.488,0,0,0-1.091-.477h-.191a1.389,1.389,0,0,0-1.262.812h-.07V-738H47.7v6.261h.889v-2.63a1.047,1.047,0,0,1,.3-.834,1.044,1.044,0,0,1,.753-.311Zm-11.058,0h.049c.654,0,.972.354.972,1.084v2.692H40.5v-2.915a1.455,1.455,0,0,0-.376-1.212,1.469,1.469,0,0,0-1.072-.467h-.22a1.349,1.349,0,0,0-1.235.806h-.066v-.715H36.67v4.5h.889v-2.634a1.03,1.03,0,0,1,.275-.818,1.035,1.035,0,0,1,.75-.321ZM11.094-738v6.261h.888V-738Zm-3.326,2.485h.049c.654,0,.972.354.972,1.084v2.692h.888v-2.915a1.455,1.455,0,0,0-.376-1.212,1.469,1.469,0,0,0-1.072-.467h-.22a1.346,1.346,0,0,0-1.234.806H6.709v-.715H5.854v4.5h.889v-2.634a1.03,1.03,0,0,1,.275-.818,1.035,1.035,0,0,1,.75-.321Zm-20.1-2.19v5.967h2.155c1.785,0,2.808-1.094,2.808-3a2.632,2.632,0,0,0-.7-2.147,2.653,2.653,0,0,0-1.917-.825,1.725,1.725,0,0,0-.189.007Zm13.98,2.65h.07l.931,3.317h.923l1.236-4.5H3.921l-.8,3.435h-.07l-.926-3.435H1.27L.344-732.8H.278l-.807-3.435h-.9l1.241,4.5H.724l.927-3.316Zm-27.335-2.1a5.138,5.138,0,0,0-3.335,1.725,4.854,4.854,0,0,0-1.19,3.5h.044a4.246,4.246,0,0,0,3.322-1.591,5.04,5.04,0,0,0,1.159-3.63h0Zm67.043,21.229c-1.5,0-2.4-1.161-2.4-3.107s.9-3.107,2.4-3.107,2.4,1.161,2.4,3.107-.894,3.11-2.4,3.11Zm-29.537-.06c-1.421,0-2.375-1.224-2.375-3.047s.954-3.037,2.375-3.037a2.138,2.138,0,0,1,1.739.832,3.528,3.528,0,0,1,.655,2.206c0,1.853-.938,3.049-2.391,3.049Zm-9.965,0c-1.421,0-2.375-1.224-2.375-3.047s.954-3.037,2.375-3.037a2.138,2.138,0,0,1,1.739.832,3.528,3.528,0,0,1,.655,2.206c0,1.853-.938,3.049-2.391,3.049Zm-9.046-3.425h-3.752l1.851-5.447h.051l1.849,5.446Zm65.817-.455H54.1a2.277,2.277,0,0,1,.674-1.63,2.279,2.279,0,0,1,1.618-.669h.059a2.188,2.188,0,0,1,1.567.665,2.179,2.179,0,0,1,.608,1.633ZM20.236-732.407a1.044,1.044,0,0,1-.107-.005c-.507,0-.834-.252-.834-.641s.286-.609.9-.65l1.1-.07v.376a1.069,1.069,0,0,1-.374.74,1.063,1.063,0,0,1-.685.25Zm13.119-.034c-.767,0-1.207-.565-1.207-1.551s.44-1.547,1.207-1.547,1.209.564,1.209,1.547-.441,1.55-1.209,1.55Zm-18.012,0c-.767,0-1.207-.565-1.207-1.551s.44-1.547,1.207-1.547,1.208.564,1.208,1.547-.44,1.55-1.208,1.55Zm-19.537,0c-.767,0-1.207-.565-1.207-1.551s.44-1.547,1.207-1.547,1.208.564,1.208,1.547-.44,1.55-1.208,1.55Zm29.664-.021c-.753,0-1.2-.572-1.2-1.53s.45-1.526,1.2-1.526,1.211.586,1.211,1.529S26.217-732.462,25.47-732.462Zm-35.634-.117H-11.4v-4.279h1.23a1.884,1.884,0,0,1,1.381.606,1.875,1.875,0,0,1,.481,1.531,1.865,1.865,0,0,1-.472,1.541,1.878,1.878,0,0,1-1.384.6ZM55.909-734.4H53.636a1.16,1.16,0,0,1,.337-.83,1.161,1.161,0,0,1,.815-.338h.036a1.091,1.091,0,0,1,.789.339,1.089,1.089,0,0,1,.3.828Z" transform="translate(49 745)" fill="#252e48"/>
</svg>
