<?xml version="1.0" encoding="UTF-8"?>
<svg xmlns="http://www.w3.org/2000/svg" width="132" height="39.246" viewBox="0 0 132 39.246">
  <path id="google-play-hover-en" d="M-337.891-705.754H-460.11A4.9,4.9,0,0,1-465-710.66v-29.435A4.9,4.9,0,0,1-460.11-745h122.219A4.9,4.9,0,0,1-333-740.094v29.435a4.9,4.9,0,0,1-4.891,4.9Zm-53.373-7.951-1.592.666a4,4,0,0,0,3.694,2.463,3.9,3.9,0,0,0,2.79-1.018,4.452,4.452,0,0,0,1.178-3.332v-7.49h-1.732v.688H-387a2.9,2.9,0,0,0-2.2-.937,4.151,4.151,0,0,0-4,4.186,4.175,4.175,0,0,0,1.216,2.956,3.967,3.967,0,0,0,2.785,1.2,2.874,2.874,0,0,0,2.2-.949h.067v.6c0,1.558-.811,2.452-2.224,2.452a2.31,2.31,0,0,1-2.107-1.48Zm41.353-8.71,3.271,7.436-1.864,4.133h1.908l5.033-11.569h-2.026l-2.1,5.319h-.067l-2.18-5.319Zm-91.949-2.2h0L-453.489-713l-.159.159.028.083,14.811-8.312.34-.191-1.559-1.542-1.832-1.815Zm-13.152-13.139h0c-.041.15-.086.3-.13.436a4.771,4.771,0,0,0-.22.905,9.117,9.117,0,0,0-.022,1.17c0,.168.008.338.008.5v20.208a1.968,1.968,0,0,0,.453,1.436l10.052-10.046,2.236-2.235-7.67-7.676-4.7-4.707Zm56.858,15.1a4.2,4.2,0,0,0-2.96,1.18,4.142,4.142,0,0,0-1.226,3,4.136,4.136,0,0,0,1.216,2.967,4.136,4.136,0,0,0,2.971,1.207,4.193,4.193,0,0,0,2.96-1.184,4.142,4.142,0,0,0,1.226-2.99,4.143,4.143,0,0,0-1.226-2.995,4.2,4.2,0,0,0-2.96-1.18Zm-9.134,0a4.2,4.2,0,0,0-2.96,1.18,4.142,4.142,0,0,0-1.226,3,4.136,4.136,0,0,0,1.215,2.967,4.136,4.136,0,0,0,2.971,1.207,4.2,4.2,0,0,0,2.96-1.184,4.142,4.142,0,0,0,1.226-2.99,4.141,4.141,0,0,0-1.227-2.995,4.2,4.2,0,0,0-2.958-1.18Zm30.012-.01a3.971,3.971,0,0,0-2.859,1.247,3.971,3.971,0,0,0-1.076,2.927,4.189,4.189,0,0,0,1.18,2.966,4.111,4.111,0,0,0,2.962,1.208,4.132,4.132,0,0,0,3.477-1.852l-1.417-.949a2.381,2.381,0,0,1-2.05,1.155,2.133,2.133,0,0,1-2.029-1.265l5.581-2.312s-.193-.46-.2-.464a3.937,3.937,0,0,0-3.568-2.661Zm23.569,2.872c-1.756,0-3.533.947-3.533,2.758a2.818,2.818,0,0,0,.945,2,2.818,2.818,0,0,0,2.1.7,2.589,2.589,0,0,0,2.331-1.2h.067v.95h1.767v-4.7a3.21,3.21,0,0,0-1.074-2.519,3.971,3.971,0,0,0-2.643-.879,3.47,3.47,0,0,0-3.271,1.875l1.624.675a1.743,1.743,0,0,1,1.669-.9,1.779,1.779,0,0,1,1.931,1.58v.13a4.093,4.093,0,0,0-1.908-.465Zm-64.43-7.5a6.579,6.579,0,0,0-4.628,1.9,6.373,6.373,0,0,0-1.947,4.575,6.373,6.373,0,0,0,1.946,4.579,6.581,6.581,0,0,0,4.628,1.9,5.952,5.952,0,0,0,4.524-1.821,5.884,5.884,0,0,0,1.536-4.142,5.431,5.431,0,0,0-.1-1.1h-5.983v1.786h4.241a3.746,3.746,0,0,1-.959,2.224,4.309,4.309,0,0,1-3.272,1.3,4.582,4.582,0,0,1-3.3-1.378A4.724,4.724,0,0,1-422.8-720.8a4.725,4.725,0,0,1,1.345-3.333,4.582,4.582,0,0,1,3.3-1.378,4.548,4.548,0,0,1,3.193,1.265l1.253-1.253a6.137,6.137,0,0,0-4.43-1.788Zm58.052.46v12.263h1.832v-12.263Zm-9.418,0v12.263h1.832v-4.644h2.552a3.886,3.886,0,0,0,2.806-1.059,3.886,3.886,0,0,0,1.217-2.741,3.891,3.891,0,0,0-1.214-2.75,3.891,3.891,0,0,0-2.811-1.064Zm-14.423,0v12.263h1.832v-12.263Zm-53.572-2.126-2.26,2.243-1.4,1.385.5.5,3.064,3.07c.456-.256.931-.52,1.35-.753,1.047-.581,2.129-1.182,3.174-1.808a1.3,1.3,0,0,0,.739-1.067,1.267,1.267,0,0,0-.713-1.045c-1.059-.64-2.14-1.238-3.185-1.817l-.032-.018c-.43-.238-.837-.463-1.241-.691Zm-16.1-9.032h0l-.018.079,5.921,5.917,5.837,5.833,3.361-3.359-12.572-7.052-.113-.063Zm58.667-.372a2.976,2.976,0,0,0-2.227.922,3.073,3.073,0,0,0-.9,2.248,3.14,3.14,0,0,0,.9,2.251,2.988,2.988,0,0,0,2.229.923,2.963,2.963,0,0,0,2.227-.924,3.148,3.148,0,0,0,.9-2.249,3.137,3.137,0,0,0-.9-2.248,3.019,3.019,0,0,0-2.234-.923Zm-26.425,0a3.056,3.056,0,0,0-2.238.91,3.056,3.056,0,0,0-.923,2.261,3.056,3.056,0,0,0,.923,2.261,3.1,3.1,0,0,0,2.238.91,2.961,2.961,0,0,0,2.227-.9,2.757,2.757,0,0,0,.759-2.031,3.369,3.369,0,0,0-.043-.451v-.009l-.013-.083h-3.038v.915h2.126a1.7,1.7,0,0,1-.45,1.02,2.14,2.14,0,0,1-1.576.626,2.126,2.126,0,0,1-1.534-.626,2.187,2.187,0,0,1-.646-1.629,2.188,2.188,0,0,1,.646-1.63,2.127,2.127,0,0,1,1.534-.626,1.886,1.886,0,0,1,1.539.663l.068.081.663-.652-.059-.07a2.517,2.517,0,0,0-.952-.68,3.13,3.13,0,0,0-1.256-.257Zm31.331,1.619h0l2.868,4.59h.937v-6.082h-.947v3.548l.024.824-2.7-4.326-.029-.046h-1.069v6.079h.937v-3.763l-.024-.823Zm-12.894-.574v5.167h.947v-5.167h1.646v-.915h-4.24v.915Zm-3.367-.915v6.082h.947v-6.082Zm-5.322.915v5.167h.947v-5.167h1.647v-.915h-4.241v.915Zm-5.877-.915v6.072h3.631v-.914h-2.681v-1.669h2.419v-.905h-2.419v-1.669h2.681v-.915Zm28.453,22.27a2.4,2.4,0,0,1-1.689-.772,2.4,2.4,0,0,1-.633-1.746,2.412,2.412,0,0,1,.628-1.757,2.412,2.412,0,0,1,1.694-.783,2.345,2.345,0,0,1,1.652.8,2.345,2.345,0,0,1,.572,1.742,2.613,2.613,0,0,1-.714,1.888,2.112,2.112,0,0,1-1.515.632Zm-9.114,0a2.42,2.42,0,0,1-1.708-.771,2.42,2.42,0,0,1-.646-1.759,2.6,2.6,0,0,1,.7-1.829,2.28,2.28,0,0,1,1.65-.7,2.28,2.28,0,0,1,1.651.7,2.6,2.6,0,0,1,.7,1.829,2.584,2.584,0,0,1-.729,1.852,2.282,2.282,0,0,1-1.623.68Zm-9.134,0a2.42,2.42,0,0,1-1.708-.771,2.42,2.42,0,0,1-.646-1.759,2.6,2.6,0,0,1,.7-1.829,2.28,2.28,0,0,1,1.65-.7,2.281,2.281,0,0,1,1.652.7,2.6,2.6,0,0,1,.7,1.829,2.421,2.421,0,0,1-.645,1.76,2.421,2.421,0,0,1-1.708.772Zm53.308,0c-.578,0-1.439-.279-1.439-1.048,0-.9.975-1.309,1.94-1.309a3.172,3.172,0,0,1,1.669.413,2.211,2.211,0,0,1-2.17,1.943Zm-25.412-2.651h0a2.335,2.335,0,0,1,.648-1.743,2.235,2.235,0,0,1,1.531-.687,1.618,1.618,0,0,1,1.549.884l-3.727,1.547Zm14.326-2.312h-2.606v-4.208h2.606a2.13,2.13,0,0,1,2.148,2.1,2.13,2.13,0,0,1-.639,1.5,2.13,2.13,0,0,1-1.514.609Zm-29.87-12.01a2.1,2.1,0,0,1-1.535-.636,2.2,2.2,0,0,1-.621-1.62,2.2,2.2,0,0,1,.626-1.62,2.033,2.033,0,0,1,1.531-.636,2.1,2.1,0,0,1,1.534.636,2.2,2.2,0,0,1,.624,1.62,2.2,2.2,0,0,1-.626,1.62,2.044,2.044,0,0,1-1.538.639Z" transform="translate(465 745)" fill="#252e48"/>
</svg>
