<svg xmlns="http://www.w3.org/2000/svg" xmlns:xlink="http://www.w3.org/1999/xlink" viewBox="0 0 30.00294 20"><defs><style>.a{fill:none;}.b{clip-path:url(#a);}.c{fill:#fff;}.d{fill:url(#b);}</style><clipPath id="a"><rect class="a" width="30" height="20" rx="3"/></clipPath><radialGradient id="b" cx="611.59941" cy="-613.54167" r="55.649" gradientTransform="matrix(0.667, 0, 0, -0.446, -404.533, -290.748)" gradientUnits="userSpaceOnUse"><stop offset="0" stop-color="#9dd5f6"/><stop offset="0.071" stop-color="#98d3f5"/><stop offset="0.157" stop-color="#89cef3"/><stop offset="0.252" stop-color="#70c6ef"/><stop offset="0.351" stop-color="#4ebbea"/><stop offset="0.455" stop-color="#23ade3"/><stop offset="0.5" stop-color="#0da6e0"/><stop offset="1" stop-color="#2e77bc"/></radialGradient></defs><title>American_Express</title><g class="b"><rect class="c" width="30" height="20"/><path class="d" d="M30,10.339H28.26a1.68,1.68,0,0,0-1.05.3v-.3H24.93a1.445,1.445,0,0,0-.99.3v-.3H19.83v.3a2.16,2.16,0,0,0-1.14-.3h-2.7v.3a2.007,2.007,0,0,0-1.17-.3H11.79l-.69.752-.66-.752H5.94v4.9h4.44l.72-.752.66.752h2.73V14.1h.27a2.71587,2.71587,0,0,0,1.17-.181v1.324h2.25V13.95h.12c.15,0,.15,0,.15.15v1.143h6.84a2.129,2.129,0,0,0,1.14-.3v.3h2.16A1.913,1.913,0,0,0,30,14.8V20H0V9.2H1.44l.33-.782h.72l.33.782H5.64V8.6l.24.6H7.35l.24-.6v.6h6.99V7.9h.15c.09,0,.12,0,.12.181V9.2h3.63V8.9a2.988,2.988,0,0,0,1.35.3h1.53l.33-.782h.72l.33.782h2.94V8.448l.45.752h2.34V4.3H26.1v.572L25.77,4.3h-2.4v.572l-.3-.572H19.86a2.956,2.956,0,0,0-1.41.3V4.3H16.23v.3a1.414,1.414,0,0,0-.96-.3H7.14L6.6,5.555,6.03,4.291H3.48v.572l-.27-.572H1.02L0,6.638V0H30ZM1.26,7.721.93,8.5H0L1.5,4.979H2.76L4.2,8.319V4.979H5.58L6.69,7.36,7.71,4.983H9.12V8.5H8.25V5.735L7.02,8.5H6.27L5.04,5.735V8.5H3.3L3,7.721ZM1.53,7H2.7L2.1,5.586ZM12.48,5.736V5.014H9.69V8.535h2.79V7.813H10.5V7.121h1.92V6.4H10.5V5.738Zm3.93.211a.81.81,0,0,0-.42-.782,2.069,2.069,0,0,0-1.02-.181H13.05V8.5h.84V7.24h.9a.8.8,0,0,1,.6.15,1.1,1.1,0,0,1,.12.692v.451h.84V7.841a.833.833,0,0,0-.57-.933,1.038,1.038,0,0,0,.63-.962Zm-1.08.481a.887.887,0,0,1-.42.06H13.89V5.736h1.02a.763.763,0,0,1,.39.06.3.3,0,0,1,.18.3.285.285,0,0,1-.15.331Zm2.43-1.444V8.5h-.87V4.983Zm1.5.963a1.105,1.105,0,0,0-.24.782,1.016,1.016,0,0,0,.24.812.729.729,0,0,0,.57.181h.39l1.17-2.768h1.26l1.41,3.34V4.984h1.29l1.47,2.437V4.983h.87V8.5h-1.2L24.9,5.856V8.5H23.19l-.33-.782H21.12l-.33.782H19.8a1.779,1.779,0,0,1-1.23-.391,1.751,1.751,0,0,1-.45-1.354,1.931,1.931,0,0,1,.45-1.384,1.718,1.718,0,0,1,1.26-.421h.87v.782h-.78a.919.919,0,0,0-.66.214ZM21.42,7h1.17l-.57-1.414ZM30,11.031H28.14a1.053,1.053,0,0,0-1.2,1.053c0,1.113.99,1.053,1.77,1.083a.4.4,0,0,1,.3.09.3.3,0,0,1,.09.241.342.342,0,0,1-.09.241.482.482,0,0,1-.33.09H27.06v.752h1.62a1.308,1.308,0,0,0,1.14-.451,1.147,1.147,0,0,0,.18-.662,1.025,1.025,0,0,0-.18-.662c-.03-.03-.03-.06-.09-.09a1.308,1.308,0,0,0-.96-.271h-.45a1.0232,1.0232,0,0,1-.33-.03.242.242,0,0,1-.18-.271c0-.12.03-.211.12-.241a.54293.54293,0,0,1,.33-.06H30ZM25.41,13.8H23.79v.752h1.62c.84,0,1.32-.361,1.32-1.113a1.074,1.074,0,0,0-.24-.752,1.357,1.357,0,0,0-.96-.271h-.45a1.0232,1.0232,0,0,1-.33-.03.242.242,0,0,1-.18-.271c0-.12.03-.211.12-.241a.543.543,0,0,1,.33-.06h1.53v-.752H24.87a1.053,1.053,0,0,0-1.2,1.053c0,1.113.99,1.053,1.77,1.083a.4.4,0,0,1,.3.09.3.3,0,0,1,.09.241.342.342,0,0,1-.09.241A.93022.93022,0,0,1,25.41,13.8Zm-2.13-2.016v-.722H20.49v3.521h2.79V13.86H21.33v-.692h1.92v-.722H21.33v-.632h1.95Zm-3.87,1.143a.894.894,0,0,1,.42.3.99.99,0,0,1,.15.632v.692h-.84V14.1a.951.951,0,0,0-.15-.692c-.12-.12-.3-.15-.63-.15h-.9v1.294h-.84V11.031h1.95a2.138,2.138,0,0,1,1.02.181.81.81,0,0,1,.42.782A.949.949,0,0,1,19.41,12.927Zm-.33-.782a.346.346,0,0,0-.18-.331.763.763,0,0,0-.39-.06H17.49v.782h1.02a.95107.95107,0,0,0,.42-.06.389.389,0,0,0,.15-.332Zm-2.82.06c0,.963-.72,1.174-1.47,1.174H13.74v1.174H12.12L11.1,13.378l-1.08,1.174H6.69V11.031h3.36l1.02,1.143,1.08-1.143h2.67c.69,0,1.44.211,1.44,1.169Zm-5.73.6L9.6,11.783H7.5v.632H9.33v.722H7.5v.692H9.57Zm2.37-1.384-1.29,1.384,1.29,1.444Zm2.46.782c0-.3-.21-.421-.51-.421H13.77v.9h1.08c.3-.026.51-.176.51-.482Z"/></g></svg>