<svg xmlns="http://www.w3.org/2000/svg" width="24" height="24" viewBox="0 0 24 24">
    <defs>
        <linearGradient id="prefix__a" x1="96.603%" x2="70.152%" y1="4.169%" y2="81.14%">
            <stop offset="0%" stop-color="#59B5FF"/>
            <stop offset="100%" stop-color="#1766CD"/>
        </linearGradient>
        <linearGradient id="prefix__b" x1="96.603%" x2="70.152%" y1="4.169%" y2="81.14%">
            <stop offset="0%" stop-color="#59B5FF"/>
            <stop offset="100%" stop-color="#1766CD"/>
        </linearGradient>
        <linearGradient id="prefix__c" x1="51.864%" x2="50.806%" y1="4.169%" y2="81.14%">
            <stop offset="0%" stop-color="#59B5FF"/>
            <stop offset="100%" stop-color="#1766CD"/>
        </linearGradient>
        <linearGradient id="prefix__d" x1="96.603%" x2="70.152%" y1="4.171%" y2="81.138%">
            <stop offset="0%" stop-color="#59B5FF"/>
            <stop offset="100%" stop-color="#1766CD"/>
        </linearGradient>
        <linearGradient id="prefix__e" x1="96.603%" x2="70.152%" y1="47.821%" y2="51.481%">
            <stop offset="0%" stop-color="#59B5FF"/>
            <stop offset="100%" stop-color="#1766CD"/>
        </linearGradient>
    </defs>
    <g fill="none">
        <path fill="url(#prefix__a)" d="M23.436 6.336L17.664.564c-1.134 1.133-2.971 1.133-4.104 0L.564 13.56c1.133 1.133 1.133 2.97 0 4.104l5.772 5.772c1.134-1.133 2.971-1.133 4.104 0L23.436 10.44c-1.133-1.133-1.133-2.97 0-4.104z"/>
        <path fill="url(#prefix__a)" d="M23.436 10.44L10.44 23.436c-1.133-1.133-2.97-1.133-4.104 0L3.45 20.55l17.1-17.1 2.886 2.886c-1.133 1.134-1.133 2.971 0 4.104z"/>
        <path fill="#FCD600" d="M21.952 6.799l-4.75-4.751c-.933.933-2.445.933-3.378 0L1.943 13.929c.932.933.932 2.445 0 3.378l4.75 4.75c.933-.933 2.445-.933 3.378 0l11.88-11.881c-.932-.933-.932-2.445 0-3.377z"/>
        <path fill="#FCD600" d="M21.952 10.176L10.07 22.057c-.932-.932-2.444-.932-3.376 0l-2.376-2.375L19.577 4.423 21.952 6.8c-.933.932-.933 2.445 0 3.377z"/>
        <g>
            <path fill="url(#prefix__b)" d="M2.997 5.868c.179-.179.317-.38.414-.604.097-.224.15-.447.158-.67.008-.224-.026-.443-.103-.656-.076-.213-.198-.404-.367-.573-.163-.163-.352-.284-.568-.363-.216-.078-.434-.113-.655-.102-.221.01-.444.064-.667.162-.224.097-.425.235-.604.414-.185.184-.324.387-.419.608-.094.22-.147.442-.158.663-.01.221.024.44.103.655.079.216.2.406.363.569.169.168.36.29.573.367.213.076.431.11.655.102.223-.007.446-.059.667-.154.22-.094.423-.234.608-.418zm-1.97-.935C.977 4.825.948 4.714.94 4.6c-.008-.113.003-.221.032-.324.029-.102.083-.193.162-.272.152-.153.348-.22.588-.201.24.018.451.12.635.303.09.09.16.19.213.3.053.111.083.223.091.336.008.113-.002.221-.031.324-.03.102-.083.193-.162.272-.153.153-.35.218-.592.197-.242-.02-.455-.123-.64-.308-.09-.089-.159-.188-.209-.295z" transform="translate(6.938 7.219)"/>
            <path fill="url(#prefix__c)" d="M4.947 0.018L4.039 0.073 4.686 4.826 5.057 9.649 5.965 9.594 5.341 4.723z" transform="translate(6.938 7.219)"/>
            <path fill="#1D6FDA" d="M5.965 9.594L5.057 9.649 4.71 5.134 5.324 4.519 5.341 4.724z" transform="translate(6.938 7.219)"/>
        </g>
        <path fill="url(#prefix__d)" d="M15.895 10.545c-.211-.08-.43-.113-.656-.103-.226.01-.45.063-.67.158-.222.095-.424.234-.609.418-.184.185-.323.387-.418.608-.095.221-.146.444-.154.667-.008.224.026.442.103.656.076.213.198.404.367.572.168.168.359.29.572.367.213.076.43.11.651.099.221-.01.442-.063.664-.158.22-.095.423-.234.607-.419.185-.184.324-.386.419-.607.094-.222.149-.444.162-.668.013-.223-.02-.44-.1-.65-.078-.211-.202-.4-.37-.57-.168-.168-.358-.291-.568-.37zm.035 1.409c.05.108.079.218.087.331.008.114-.003.222-.032.324-.029.103-.083.194-.162.272-.152.153-.348.22-.588.202-.24-.019-.45-.12-.635-.304-.09-.09-.16-.19-.213-.3-.053-.11-.083-.222-.091-.336-.008-.113.002-.22.031-.323.03-.103.083-.194.162-.273.074-.073.162-.127.265-.162.102-.034.209-.045.32-.035.11.01.222.04.335.09.113.05.217.123.312.218.09.09.159.188.21.296z"/>
        <path fill="url(#prefix__e)" d="M14.403 6.029H18.017V7.029H14.403z" transform="rotate(135 16.21 6.423)"/>
        <path fill="url(#prefix__a)" d="M19.133 6.792L16.578 9.347 16.021 8.79 18.576 6.234z"/>
        <path fill="url(#prefix__e)" d="M4.511 15.921H8.125V16.921H4.511z" transform="rotate(135 6.318 16.315)"/>
        <path fill="url(#prefix__e)" d="M5.878 17.288H9.492V18.288H5.878z" transform="rotate(135 7.685 17.682)"/>
    </g>
</svg>
