<svg xmlns="http://www.w3.org/2000/svg" viewBox="0 0 30 20"><defs><style>.a{fill:#f79e1b;}.b{fill:#ff5f00;}.c{fill:#eb001b;}</style></defs><title>master_card</title><rect width="30" height="20" rx="3"/><path class="a" d="M26.64,10.015a6.992,6.992,0,0,1-11.309,5.493,7.019,7.019,0,0,0,1.152-9.854,6.64748,6.64748,0,0,0-1.152-1.151A7,7,0,0,1,26.64,10.015Z"/><path class="b" d="M16.483,5.655a6.64783,6.64783,0,0,0-1.151-1.152h-.019a7,7,0,0,0,0,10.987h.019a7,7,0,0,0,1.1533-9.83208Z"/><path class="c" d="M12.65,10.016a7.043,7.043,0,0,1,2.662-5.512,6.97551,6.97551,0,1,0,.023,10.987A6.9,6.9,0,0,1,12.65,10.016Z"/></svg>