<svg xmlns="http://www.w3.org/2000/svg" viewBox="0 0 30 20"><defs><style>.a{fill:#fcfcfc;}.b{fill:#009ade;}.c{fill:#002f87;}</style></defs><title>PayPal</title><rect class="a" width="30" height="20" rx="3"/><path class="b" d="M26.787,7.137l-.8,4.952a.159.159,0,0,0,.132.182l.025.002h.8a.268.268,0,0,0,.267-.222l.786-4.86a.159.159,0,0,0-.132-.182l-.025-.002h-.9A.147.147,0,0,0,26.787,7.137Z"/><path class="b" d="M25.686,8.755h-.928a.153.153,0,0,0-.157.13l-.039.253-.063-.092a1.358,1.358,0,0,0-1.1-.383,2.113,2.113,0,0,0-2.076,1.824,1.69992,1.69992,0,0,0,.346,1.4,1.464,1.464,0,0,0,1.172.46,1.788,1.788,0,0,0,1.289-.521l-.039.253a.159.159,0,0,0,.132.182l.025.002h.841a.268.268,0,0,0,.267-.222l.5-3.112a.172.172,0,0,0-.17-.174Zm-1.3,1.771a1.026,1.026,0,0,1-1.054.866.81.81,0,0,1-.629-.245.757.757,0,0,1-.149-.636A1.036,1.036,0,0,1,23.6,9.637a.793.793,0,0,1,.621.245.75307.75307,0,0,1,.168.644Z"/><path class="b" d="M19.868,7H17.926a.268.268,0,0,0-.267.222l-.786,4.86a.159.159,0,0,0,.132.182l.025.002h1a.193.193,0,0,0,.189-.153l.22-1.38a.268.268,0,0,1,.267-.222h.613a1.989,1.989,0,0,0,2.21069-1.73926L21.536,8.711a1.44394,1.44394,0,0,0-.252-1.226A1.818,1.818,0,0,0,19.868,7Zm.228,1.778c-.11.682-.637.682-1.156.682h-.291l.2-1.272a.159.159,0,0,1,.157-.13h.134c.354,0,.684,0,.857.192A.619.619,0,0,1,20.096,8.778Z"/><path class="c" d="M16.77,8.755h-.936a.274.274,0,0,0-.22.115l-1.3,1.855-.55-1.778a.268.268,0,0,0-.259-.192h-.912a.163.163,0,0,0-.157.207l1.03,2.951-.967,1.334a.159.159,0,0,0,.134.253h.936a.274.274,0,0,0,.22-.115l3.114-4.384a.155.155,0,0,0-.133-.246Z"/><path class="c" d="M11.808,8.755H10.88a.153.153,0,0,0-.157.13l-.039.253-.063-.092a1.35805,1.35805,0,0,0-1.1-.383,2.113,2.113,0,0,0-2.076,1.824,1.7,1.7,0,0,0,.346,1.4,1.464,1.464,0,0,0,1.172.46,1.788,1.788,0,0,0,1.29-.521l-.039.253a.159.159,0,0,0,.132.182l.025.002h.841a.268.268,0,0,0,.267-.222l.5-3.112a.167.167,0,0,0-.1598-.1739Zm-1.3,1.771a1.026,1.026,0,0,1-1.054.866.81.81,0,0,1-.629-.245.75706.75706,0,0,1-.149-.636,1.036,1.036,0,0,1,1.046-.874.793.793,0,0,1,.621.245.753.753,0,0,1,.168.644Z"/><path class="c" d="M5.998,7H4.056a.268.268,0,0,0-.267.222l-.786,4.86a.159.159,0,0,0,.132.182l.025.002h.928a.268.268,0,0,0,.267-.222l.212-1.311a.268.268,0,0,1,.267-.222h.613A1.989,1.989,0,0,0,7.6577,8.77172L7.664,8.711a1.444,1.444,0,0,0-.252-1.226A1.841,1.841,0,0,0,5.998,7Zm.22,1.778c-.11.682-.637.682-1.156.682H4.771l.2-1.272a.159.159,0,0,1,.157-.13h.134c.354,0,.684,0,.857.192A.619.619,0,0,1,6.218,8.778Z"/></svg>