<svg xmlns="http://www.w3.org/2000/svg" width="24" height="24" viewBox="0 0 24 24">
    <g fill="none" fill-rule="evenodd">
        <path fill="#FDD835" d="M22.792 6.746a12.067 12.067 0 0 0-5.452-5.493A12.004 12.004 0 0 0 10.613.079C6.187.54 2.2 3.704.718 7.897a12.057 12.057 0 0 0 .19 8.692 12.05 12.05 0 0 0 5.538 6.05 12.003 12.003 0 0 0 7.366 1.222 11.914 11.914 0 0 0 6.013-2.768 11.978 11.978 0 0 0 3.874-6.416 12.038 12.038 0 0 0-.907-7.93"/>
        <path fill="#FFB500" d="M20.937 10.576c-.4-2.749-2.206-5.268-4.703-6.578-1.665-.91-3.674-1.243-5.622-.96-2.578.44-4.89 1.9-6.2 3.98-1.02 1.676-1.55 3.486-1.46 5.227.031 2.718 1.428 5.397 3.653 7.027 2.712 2.085 6.683 2.376 9.678.704 2.075-1.1 3.689-3.075 4.406-5.366.376-1.485.476-2.809.248-4.034zm.654 4.302c-.789 2.53-2.567 4.71-4.859 5.925-3.314 1.85-7.69 1.53-10.691-.778-2.454-1.797-3.995-4.753-4.03-7.75-.1-1.924.484-3.918 1.602-5.752 1.46-2.32 4.007-3.928 6.852-4.415 2.157-.312 4.372.055 6.213 1.06 2.755 1.446 4.747 4.223 5.186 7.254.255 1.36.143 2.82-.266 4.431l-.456-.115.45.14z"/>
        <path fill="#FFB500" d="M12 18l-6-6 6-6 6 6z"/>
    </g>
</svg>
