<svg xmlns="http://www.w3.org/2000/svg" viewBox="0 0 16 14" id="svg159">
  <defs id="defs136">
    <style id="style134">
      .cls-1{fill:#fff;stroke:#000}.cls-3{stroke:none}.cls-4{fill:none}
    </style>
  </defs>
  <g id="Trash_Bin" data-name="Trash Bin" transform="translate(-275 -226)">
    <g id="Bin" class="cls-1" transform="translate(278 230)">
      <path class="cls-3" d="M0 0h10v8a2 2 0 0 1-2 2H2a2 2 0 0 1-2-2V0z" id="path138"/>
      <path class="cls-4" d="M1 .5h8a.5.5 0 0 1 .5.5v7A1.5 1.5 0 0 1 8 9.5H2A1.5 1.5 0 0 1 .5 8V1A.5.5 0 0 1 1 .5z" id="path140"/>
    </g>
    <g id="Body_Lines" data-name="Body Lines" class="cls-1" transform="translate(281 230)">
      <path d="M0 0h4v10H0z" id="rect143"/>
      <path d="M.5.5h3v9h-3z" id="rect145" fill="none"/>
    </g>
    <g id="Lid" class="cls-1" transform="translate(280 226)">
      <path class="cls-3" d="M2 0h2a2 2 0 0 1 2 2v2H0V2a2 2 0 0 1 2-2z" id="path148"/>
      <path class="cls-4" d="M2 .5h2A1.5 1.5 0 0 1 5.5 2v1a.5.5 0 0 1-.5.5H1A.5.5 0 0 1 .5 3V2A1.5 1.5 0 0 1 2 .5z" id="path150"/>
    </g>
    <g id="Rim" transform="translate(276 229)" stroke="#fff">
      <path d="M1 0h12c.554 0 1 .446 1 1s-.446 1-1 1H1c-.554 0-1-.446-1-1s.446-1 1-1z" id="rect153" stroke="none"/>
      <path d="M1-.5h12c.831 0 1.5.669 1.5 1.5s-.669 1.5-1.5 1.5H1C.169 2.5-.5 1.831-.5 1S.169-.5 1-.5z" id="rect155" fill="none"/>
    </g>
  </g>
</svg>
