<svg xmlns="http://www.w3.org/2000/svg" viewBox="0 0 30 20"><defs><style>.a{fill:#fcfcfc;}.b{fill:#1a1f71;}</style></defs><title>VISA</title><rect class="a" width="30" height="20" rx="3"/><path class="b" d="M11.484,6.141l-3.266,7.8H6.078L4.469,7.7C4.36,7.309,4.282,7.184,4,7.028a7.69983,7.69983,0,0,0-2-.653l.047-.219H5.484a.927.927,0,0,1,.922.8l.844,4.5L9.344,6.141Zm8.375,5.25c0-2.062-2.844-2.187-2.812-3.094,0-.281.266-.578.859-.656a3.99991,3.99991,0,0,1,2,.344l.344-1.641A5.256,5.256,0,0,0,18.359,6c-2,0-3.391,1.062-3.422,2.578C14.922,9.7,15.953,10.328,16.7,10.7c.766.375,1.047.641,1.047.969,0,.516-.641.766-1.219.766a4.21106,4.21106,0,0,1-2.078-.5l-.375,1.7a5.80009,5.80009,0,0,0,2.25.406c2.125.016,3.516-1.031,3.531-2.656m5.266,2.547H27L25.375,6.141H23.641a.914.914,0,0,0-.859.578l-3.048,7.218h2.125l.406-1.172h2.594Zm-2.266-2.75L23.919,8.26l.625,2.922ZM14.359,6.141,12.7,13.937H10.688l1.656-7.8Z" transform="translate(0)"/></svg>